{
.appVersion = "3133";
.formatVersion = 3;
axes = (
{
hidden = 1;
name = Shrink;
tag = ASHR;
},
{
hidden = 1;
name = Stretch;
tag = ASTR;
}
);
classes = (
{
code = "dotabove-ar
dotabove-ar.reh
dotbelow-ar
twodotsabove-ar
twodotsbelow-ar
threedotsabove-ar
threedotshorizontalabove-ar
threedotshorizontalabove-ar.alt
";
name = tashkil;
},
{
code = "alef-ar
alef-ar.1";
name = alef;
},
{
code = "alef-ar.fina
alef-ar.fina.1";
name = alef.fina;
},
{
code = "waw-ar waw-ar.1";
name = waw;
},
{
code = "waw-ar.fina waw-ar.fina.1
";
name = waw.fina;
},
{
code = "ain-ar";
name = ain;
},
{
code = "ain-ar.init
ain-ar.init
";
name = ain.init;
},
{
code = "hamza-ar
@alef
behDotless-ar
hah-ar
dal-ar
reh-ar
seen-ar
sad-ar
tah-ar
ain-ar
fehDotless-ar
qafDotless-ar
kaf-ar
lam-ar
meem-ar
noonghunna-ar
heh-ar
@waw
alefMaksura-ar

threedots-ar

behDotless_reh-ar
behDotless_waw-ar
ain_waw-ar
fehDotless_alefMaksura-ar
fehDotless_alef-ar
lam_alef-ar
meem_noonghunna-ar
meem_noonghunna-ar.1
lam_lam_heh-ar
";
name = isol;
},
{
code = "behDotless-ar.init
behDotless-ar.init.ain
behDotless-ar.init.beh
hah-ar.init
seen-ar.init
sad-ar.init
tah-ar.init
ain-ar.init
ain-ar.init.1
fehDotless-ar.init
kaf-ar.init
lam-ar.init
meem-ar.init
meem-ar.init.alt
heh-ar.init
behDotless_seen-ar.init
";
name = init;
},
{
code = "@alef.fina
alef-ar.fina.meem
behDotless-ar.fina
hah-ar.fina
dal-ar.fina
reh-ar.fina
seen-ar.fina
sad-ar.fina
tah-ar.fina
ain-ar.fina
fehDotless-ar.fina
qafDotless-ar.fina
kaf-ar.fina
lam-ar.fina
meem-ar.fina
noonghunna-ar.fina
heh-ar.fina
@waw.fina
waw-ar.fina.alt
alefMaksura-ar.fina
lam_alef-ar.fina
lam_alefMaksura-ar.fina
";
name = fina;
}
);
customParameters = (
{
name = "Write lastChange";
value = 0;
},
{
name = "Don't use Production Names";
value = 1;
},
{
name = "Disable Subroutines";
value = 1;
},
{
name = "Propagate Anchors";
value = 0;
},
{
name = "Write DisplayStrings";
value = 0;
},
{
name = "Use Line Breaks";
value = 1;
},
{
name = "Color Palettes";
value = (
(
(144,41,0,255),

glyphs = (
{
glyphname = "alef-ar";
layers = (
{
anchors = (
{
name = bottom.hamza;
pos = (477,-130);
},
{
name = top.hamza;
pos = (247,1076);
},
{
name = top.madda;
pos = (-96,1076);
}
);
backgroundImage = {
alpha = 80;
imagePath = "images/alef-ar.jpg";
locked = 1;
pos = (-222,-294);
scale = (20,20);
};
layerId = m01;
shapes = (
{
closed = 1;
nodes = (
(130,1246,o),
(126,1245,o),
(124,1242,cs),
(93,1188,o),
(46,1130,o),
(3,1084,cs),
(-1,1080,o),
(0,1076,o),
(1,1071,cs),
(10,1029,o),
(18,980,o),
(19,908,cs),
(22,724,o),
(22,516,o),
(14,332,cs),
(2,62,o),
(206,-56,o),
(426,-56,cs),
(667,-56,o),
(897,62,o),
(1023,282,cs),
(1027,289,o),
(1020,293,o),
(1016,288,cs),
(888,174,o),
(717,121,o),
(560,121,cs),
(350,121,o),
(132,233,o),
(132,437,cs),
(132,525,o),
(133,661,o),
(138,838,cs),
(141,955,o),
(142,1091,o),
(130,1242,cs)
);
}
);
width = 1024;
},
{
anchors = (
{
name = bottom.hamza;
pos = (477,-130);
},
{
name = top.hamza;
pos = (247,1076);
},
{
name = top.madda;
pos = (-96,1076);
}
);
associatedMasterId = m01;
layerId = "9B00899D-88D5-45BD-9E3A-3FF7DCDD9D9E";
name = "19 Jun 22, 19:05";
shapes = (
{
closed = 1;
nodes = (
(130,1248,o),
(127,1247,o),
(124,1242,cs),
(93,1188,o),
(46,1130,o),
(3,1084,cs),
(0,1081,o),
(0,1075,o),
(1,1071,cs),
(10,1029,o),
(19,980,o),
(19,908,cs),
(19,724,o),
(17,516,o),
(17,288,cs),
(17,-168,o),
(803,-170,o),
(1029,294,c),
(733,12,o),
(126,90,o),
(132,442,cs),
(135,591,o),
(145,869,o),
(130,1242,cs)
);
}
);
width = 1029;
}
);
metricLeft = "=0";
metricRight = "=0";
unicode = 1575;
},
{
glyphname = "alef-ar.1";
layers = (
{
anchors = (
{
name = bottom.hamza;
pos = (482,-130);
},
{
name = top.hamza;
pos = (246,1038);
},
{
name = top.madda;
pos = (-97,1038);
}
);
layerId = m01;
shapes = (
{
closed = 1;
nodes = (
(120,1235,o),
(117,1235,o),
(116,1233,cs),
(86,1164,o),
(46,1093,o),
(4,1046,cs),
(2,1043,o),
(0,1038,o),
(0,1034,cs),
(0,1033,o),
(0,1032,o),
(0,1031,cs),
(9,989,o),
(16,941,o),
(18,868,cs),
(21,763,o),
(23,439,o),
(20,328,cs),
(13,65,o),
(221,-51,o),
(457,-51,cs),
(682,-51,o),
(933,55,o),
(1048,239,cs),
(1050,243,o),
(1049,247,o),
(1046,247,cs),
(1045,247,o),
(1044,247,o),
(1043,246,cs),
(919,163,o),
(755,120,o),
(600,120,cs),
(355,120,o),
(129,229,o),
(134,466,cs),
(139,694,o),
(139,836,o),
(120,1232,cs)
);
}
);
width = 1049;
},
{
anchors = (
{
name = bottom.hamza;
pos = (484,-130);
},
{
name = top.hamza;
pos = (248,1038);
},
{
name = top.madda;
pos = (-95,1038);
}
);
associatedMasterId = m01;
layerId = "326143CD-D1D0-4B55-BF58-ACD59D580F24";
name = "19 Jun 22, 19:11";
shapes = (
{
closed = 1;
nodes = (
(80,1166,o),
(46,1088,o),
(0,1040,c),
(10,996,o),
(20,946,o),
(20,868,cs),
(22,684,o),
(26,516,o),
(22,328,cs),
(10,-194,o),
(838,-136,o),
(1060,256,c),
(742,30,o),
(126,74,o),
(136,476,cs),
(140,626,o),
(140,834,o),
(122,1240,c)
);
}
);
width = 1060;
}
);
metricLeft = "=0";
metricRight = "=0";
},
{
glyphname = "alef-ar.fina";
layers = (
{
layerId = m01;
shapes = (
{
closed = 1;
nodes = (
(246,164,l),
(272,150,l),
(168,148,o),
(140,180,o),
(136,228,cs),
(120,429,o),
(141,1051,o),
(135,1227,cs),
(135,1231,o),
(131,1231,o),
(130,1228,cs),
(106,1165,o),
(56,1106,o),
(10,1066,cs),
(4,1061,o),
(0,1053,o),
(1,1045,cs),
(26,786,o),
(12,370,o),
(0,44,cs),
(0,20,o),
(26,0,o),
(60,0,cs),
(260,0,l),
(244,-40,l)
);
}
);
width = 136;
},
{
associatedMasterId = m01;
layerId = "793E0934-4E2B-4F99-A6EE-DB1014983831";
name = "19 Jun 22, 21:51";
shapes = (
{
closed = 1;
nodes = (
(246,164,l),
(272,132,l),
(168,130,o),
(140,162,o),
(136,210,cs),
(120,416,o),
(142,1086,o),
(134,1240,c),
(110,1168,o),
(52,1100,o),
(0,1058,c),
(26,800,o),
(12,376,o),
(0,44,cs),
(0,20,o),
(26,0,o),
(60,0,cs),
(260,0,l),
(244,-40,l)
);
}
);
width = 136;
}
);
metricLeft = "=0";
},
{
color = 1;
glyphname = "alef-ar.fina.1";
layers = (
{
layerId = m01;
shapes = (
{
closed = 1;
nodes = (
(246,164,l),
(272,152,l),
(168,150,o),
(140,182,o),
(136,230,cs),
(120,431,o),
(141,1056,o),
(134,1229,cs),
(134,1232,o),
(131,1233,o),
(130,1229,cs),
(105,1164,o),
(54,1104,o),
(7,1064,cs),
(3,1061,o),
(0,1054,o),
(1,1049,cs),
(27,790,o),
(12,372,o),
(0,44,cs),
(0,20,o),
(26,0,o),
(60,0,cs),
(260,0,l),
(244,-40,l)
);
}
);
width = 136;
},
{
associatedMasterId = m01;
layerId = "C08B11C9-1748-4596-8A7C-88A1C191B248";
name = "19 Jun 22, 21:52";
shapes = (
{
closed = 1;
nodes = (
(246,164,l),
(272,132,l),
(168,130,o),
(140,162,o),
(136,210,cs),
(120,416,o),
(142,1086,o),
(134,1240,c),
(110,1168,o),
(52,1100,o),
(0,1058,c),
(26,800,o),
(12,376,o),
(0,44,cs),
(0,20,o),
(26,0,o),
(60,0,cs),
(260,0,l),
(244,-40,l)
);
}
);
width = 136;
}
);
metricLeft = "=0";
},
{
glyphname = "alef-ar.fina.meem";
layers = (
{
layerId = m01;
shapes = (
{
closed = 1;
nodes = (
(144,1293,o),
(142,1294,o),
(141,1291,cs),
(117,1226,o),
(74,1172,o),
(27,1132,cs),
(23,1129,o),
(21,1121,o),
(21,1116,cs),
(45,855,o),
(12,372,o),
(0,44,cs),
(0,20,o),
(26,0,o),
(60,0,cs),
(220,0,l),
(164,-40,l),
(166,202,l),
(228,134,l),
(184,148,o),
(110,182,o),
(112,236,cs),
(118,438,o),
(149,1121,o),
(144,1291,cs)
);
}
);
width = 136;
},
{
associatedMasterId = m01;
layerId = "3C41DB2B-4921-4403-800E-F534499CB431";
name = "19 Jun 22, 21:54";
shapes = (
{
closed = 1;
nodes = (
(120,1228,o),
(72,1168,o),
(20,1126,c),
(46,868,o),
(12,376,o),
(0,44,cs),
(0,20,o),
(26,0,o),
(60,0,cs),
(220,0,l),
(164,-40,l),
(166,202,l),
(228,134,l),
(184,148,o),
(110,182,o),
(112,236,cs),
(118,442,o),
(152,1146,o),
(144,1300,c)
);
}
);
visible = 1;
width = 136;
}
);
metricLeft = "=0";
},
{
glyphname = "behDotless-ar";
layers = (
{
anchors = (
{
name = bottom;
pos = (2185,47);
},
{
name = kasra;
pos = (1917,-82);
},
{
name = top;
pos = (1895,313);
}
);
backgroundImage = {
alpha = 80;
imagePath = "images/behDotless-ar.jpg";
locked = 1;
pos = (-165,-400);
scale = (20,20);
};
layerId = m01;
shapes = (
{
closed = 1;
nodes = (
(1944,322,o),
(1881,251,o),
(1838,222,cs),
(1830,217,o),
(1835,208,o),
(1843,207,cs),
(1920,197,o),
(1978,158,o),
(1984,131,c),
(1984,126,o),
(1974,122,o),
(1944,121,cs),
(1677,111,o),
(1397,112,o),
(1117,112,cs),
(821,112,o),
(504,115,o),
(222,126,cs),
(205,127,o),
(177,135,o),
(167,157,cs),
(165,161,o),
(163,163,o),
(159,157,cs),
(116,96,o),
(46,29,o),
(6,19,cs),
(-2,17,o),
(-2,10,o),
(8,10,cs),
(556,10,o),
(1274,0,o),
(1866,0,cs),
(1965,0,o),
(2056,0,o),
(2138,0,cs),
(2167,0,o),
(2226,7,o),
(2224,39,cs),
(2216,174,o),
(2107,362,o),
(1982,381,c)
);
}
);
width = 2224;
}
);
metricLeft = "=0";
metricRight = "=0";
unicode = 1646;
},
{
glyphname = "behDotless-ar.1";
layers = (
{
anchors = (
{
name = bottom;
pos = (2424,47);
},
{
name = kasra;
pos = (2156,-82);
},
{
name = top;
pos = (2134,313);
}
);
backgroundImage = {
alpha = 80;
imagePath = "images/behDotless-ar.1.jpg";
locked = 1;
pos = (-115,-342);
scale = (20,20);
};
layerId = m01;
shapes = (
{
closed = 1;
nodes = (
(2247,409,o),
(2242,409,o),
(2236,404,cs),
(2172,344,o),
(2078,247,o),
(2039,198,cs),
(2035,192,o),
(2036,189,o),
(2041,185,cs),
(2083,156,o),
(2140,144,o),
(2213,144,c),
(2218,141,o),
(2223,125,o),
(2223,118,c),
(1644,103,o),
(877,121,o),
(322,134,cs),
(305,134,o),
(220,135,o),
(152,162,cs),
(147,164,o),
(143,163,o),
(141,160,cs),
(103,107,o),
(49,58,o),
(5,32,cs),
(-1,29,o),
(-3,24,o),
(6,23,cs),
(334,0,o),
(823,2,o),
(1282,-2,cs),
(1580,-5,o),
(1867,-6,o),
(2100,-11,cs),
(2199,-13,o),
(2294,-14,o),
(2376,-14,cs),
(2434,-14,o),
(2464,13,o),
(2464,45,cs),
(2464,177,o),
(2371,307,o),
(2254,404,cs)
);
}
);
width = 2464;
}
);
metricLeft = "=0";
metricRight = "=0";
},
{
glyphname = "behDotless-ar.fina";
layers = (
{
anchors = (
{
name = bottom;
pos = (2159,-60);
},
{
name = kasra;
pos = (1901,-92);
},
{
name = top;
pos = (2199,440);
}
);
layerId = m01;
shapes = (
{
closed = 1;
nodes = (
(2367,204,o),
(2325,403,o),
(2274,515,cs),
(2271,521,o),
(2269,519,o),
(2267,515,cs),
(2228,456,o),
(2180,400,o),
(2118,365,cs),
(2109,360,o),
(2107,355,o),
(2112,349,cs),
(2168,278,o),
(2209,188,o),
(2205,84,c),
(2267,150,l),
(2097,122,o),
(1925,122,o),
(1561,118,cs),
(1293,114,o),
(831,118,o),
(369,126,cs),
(309,128,o),
(241,130,o),
(185,150,cs),
(180,152,o),
(177,149,o),
(175,147,cs),
(120,89,o),
(64,41,o),
(5,12,cs),
(0,10,o),
(-3,6,o),
(5,6,cs),
(379,2,o),
(760,4,o),
(1145,4,cs),
(1563,4,o),
(1979,-2,o),
(2391,0,c),
(2345,-56,l)
);
}
);
width = 2347;
},
{
anchors = (
{
name = bottom;
pos = (2168,-60);
},
{
name = kasra;
pos = (1910,-92);
},
{
name = top;
pos = (2208,440);
}
);
associatedMasterId = m01;
layerId = "2F9413E5-5F3F-478B-98CE-A634B4738AFB";
name = "19 Jun 22, 22:01";
shapes = (
{
closed = 1;
nodes = (
(2376,210,o),
(2332,412,o),
(2280,522,c),
(2238,456,o),
(2184,396,o),
(2114,358,c),
(2178,278,o),
(2218,192,o),
(2214,84,c),
(2276,150,l),
(2106,122,o),
(1934,122,o),
(1570,118,cs),
(1302,114,o),
(840,118,o),
(378,126,cs),
(316,128,o),
(250,130,o),
(188,152,c),
(128,86,o),
(66,34,o),
(0,6,c),
(388,2,o),
(764,4,o),
(1154,4,cs),
(1572,4,o),
(1988,-2,o),
(2400,0,c),
(2354,-56,l)
);
}
);
visible = 1;
width = 2356;
}
);
metricLeft = "=0";
},
{
glyphname = "behDotless-ar.medi";
layers = (
{
anchors = (
{
name = bottom;
pos = (131,-110);
},
{
name = top;
pos = (63,553);
}
);
backgroundImage = {
alpha = 80;
imagePath = "images/behDotless-ar.medi.jpg";
locked = 1;
pos = (-1950,-119);
scale = (20,20);
};
layerId = m01;
shapes = (
{
closed = 1;
nodes = (
(58,150,o),
(2,150,o),
(-34,150,c),
(-20,177,l),
(-20,-36,l),
(-47,0,l),
(67,0,o),
(201,0,o),
(315,0,c),
(239,-80,l),
(239,205,l),
(331,150,l),
(163,150,l),
(211,54,l),
(180,303,o),
(166,522,o),
(155,662,cs),
(154,677,o),
(141,679,o),
(138,664,cs),
(123,595,o),
(72,500,o),
(25,455,cs),
(19,449,o),
(19,439,o),
(22,430,cs),
(48,351,o),
(57,177,o),
(49,108,c),
(94,150,l)
);
}
);
width = 239;
},
{
anchors = (
{
name = bottom;
pos = (1740,-110);
},
{
name = top;
pos = (1672,553);
}
);
associatedMasterId = m01;
attr = {
coordinates = (
0,
100
);
};
backgroundImage = {
alpha = 80;
imagePath = "images/behDotless-ar.medi.jpg";
locked = 1;
pos = (-341,-119);
scale = (20,20);
};
layerId = "86E49FB5-E58F-46D6-9294-1FA5FA1F9D58";
name = "{0, 100}";
shapes = (
{
closed = 1;
nodes = (
(1120,121,o),
(465,137,o),
(-45,160,c),
(-20,187,l),
(-20,-26,l),
(-58,0,l),
(603,-24,o),
(1263,-19,o),
(1924,0,c),
(1848,-80,l),
(1848,205,l),
(1940,150,l),
(1772,150,l),
(1820,54,l),
(1789,303,o),
(1775,522,o),
(1764,662,cs),
(1763,677,o),
(1750,679,o),
(1747,664,cs),
(1732,595,o),
(1681,500,o),
(1634,455,cs),
(1628,449,o),
(1628,439,o),
(1631,430,cs),
(1657,351,o),
(1666,177,o),
(1658,108,c),
(1703,155,l)
);
}
);
width = 1848;
}
);
metricLeft = "=-20";
metricRight = "=0";
},
{
glyphname = "behDotless-ar.medi.ain";
layers = (
{
anchors = (
{
name = bottom;
pos = (100,-110);
},
{
name = top;
pos = (68,478);
}
);
layerId = m01;
shapes = (
{
closed = 1;
nodes = (
(-45,150,l),
(-20,177,l),
(-20,-36,l),
(-58,0,l),
(284,0,l),
(180,-90,l),
(310,220,l),
(332,134,l),
(264,132,o),
(212,134,o),
(184,210,cs),
(154,294,o),
(118,476,o),
(124,614,c),
(158,584,l),
(90,468,o),
(58,384,o),
(-36,290,c),
(0,430,l),
(15,327,o),
(24,189,o),
(54,109,c),
(91,150,l)
);
}
);
width = 210;
}
);
metricLeft = "=-20";
},
{
glyphname = "behDotless-ar.medi.kaf";
layers = (
{
anchors = (
{
name = bottom;
pos = (100,-42);
},
{
name = top;
pos = (68,478);
}
);
layerId = m01;
shapes = (
{
closed = 1;
nodes = (
(-45,150,l),
(-20,177,l),
(-20,-36,l),
(-58,0,l),
(284,0,l),
(180,-90,l),
(310,220,l),
(332,134,l),
(264,132,o),
(196,122,o),
(168,198,cs),
(142,270,o),
(128,424,o),
(124,550,c),
(86,484,o),
(56,430,o),
(8,372,c),
(17,280,o),
(29,175,o),
(40,109,c),
(81,150,l)
);
}
);
width = 200;
}
);
metricLeft = "=-20";
},
{
glyphname = "behDotless-ar.medi.lam";
layers = (
{
anchors = (
{
name = bottom;
pos = (88,-42);
},
{
name = top;
pos = (116,426);
}
);
layerId = m01;
shapes = (
{
closed = 1;
nodes = (
(-45,150,l),
(-20,177,l),
(-20,-76,l),
(-50,0,l),
(272,0,l),
(168,-90,l),
(298,220,l),
(320,152,l),
(252,150,o),
(184,152,o),
(180,210,cs),
(174,294,o),
(178,478,o),
(176,610,c),
(206,544,l),
(134,428,o),
(66,332,o),
(-28,234,c),
(36,430,l),
(48,87,l),
(91,150,l)
);
}
);
width = 188;
}
);
metricLeft = "=-20";
},
{
glyphname = "behDotless-ar.medi.meem";
layers = (
{
anchors = (
{
name = bottom;
pos = (94,0);
},
{
name = top;
pos = (42,536);
}
);
layerId = m01;
shapes = (
{
closed = 1;
nodes = (
(304,220,l),
(322,132,l),
(230,132,o),
(190,122,o),
(158,198,cs),
(128,270,o),
(108,482,o),
(104,608,c),
(66,542,o),
(32,488,o),
(-16,430,c),
(-16,316,o),
(-10,202,o),
(4,88,cs),
(8,56,o),
(30,0,o),
(94,0,c),
(278,0,l),
(174,-90,l)
);
}
);
width = 194;
}
);
},
{
glyphname = "behDotless-ar.init";
layers = (
{
anchors = (
{
name = bottom;
pos = (133,38);
},
{
name = fatha;
pos = (153,800);
},
{
name = top;
pos = (73,602);
}
);
layerId = m01;
shapes = (
{
closed = 1;
nodes = (
(-55,0,l),
(133,0,l),
(155,0,o),
(171,14,o),
(171,36,cs),
(171,337,o),
(172,414,o),
(159,673,cs),
(159,682,o),
(152,682,o),
(147,674,cs),
(113,619,o),
(64,566,o),
(27,525,cs),
(20,518,o),
(19,512,o),
(20,502,cs),
(37,381,o),
(32,248,o),
(32,84,c),
(87,150,l),
(-51,150,l),
(-20,192,l),
(-20,-30,l)
);
}
);
width = 171;
}
);
metricLeft = "=20@500";
metricRight = "=0";
},
{
glyphname = "behDotless-ar.init.ain";
layers = (
{
anchors = (
{
name = bottom;
pos = (120,38);
},
{
name = fatha;
pos = (140,800);
},
{
name = top;
pos = (60,602);
}
);
layerId = m01;
shapes = (
{
closed = 1;
nodes = (
(-48,0,l),
(120,0,l),
(142,0,o),
(158,14,o),
(158,36,cs),
(158,337,o),
(161,424,o),
(126,673,cs),
(125,682,o),
(119,682,o),
(114,674,cs),
(80,619,o),
(41,566,o),
(4,525,cs),
(-3,518,o),
(-6,512,o),
(-3,502,cs),
(28,381,o),
(19,255,o),
(14,84,c),
(74,150,l),
(-44,150,l),
(-20,192,l),
(-20,-30,l)
);
}
);
width = 178;
}
);
metricLeft = "=-20@10";
},
{
glyphname = "behDotless-ar.init.beh";
layers = (
{
anchors = (
{
name = bottom;
pos = (125,38);
},
{
name = fatha;
pos = (46,841);
},
{
name = top;
pos = (8,611);
}
);
backgroundImage = {
alpha = 80;
imagePath = "images/behDotless-ar.init.beh.jpg";
locked = 1;
pos = (-2594,-469);
scale = (20,20);
};
layerId = m01;
shapes = (
{
closed = 1;
nodes = (
(23,224,o),
(2,224,o),
(-5,224,c),
(-39,224,l),
(-20,242,l),
(-20,-30,l),
(-43,0,l),
(119,0,l),
(141,0,o),
(158,14,o),
(157,36,cs),
(149,298,o),
(155,452,o),
(98,693,cs),
(95,704,o),
(90,703,o),
(86,695,cs),
(56,630,o),
(11,564,o),
(-20,544,cs),
(-31,537,o),
(-30,522,o),
(-24,505,cs),
(5,428,o),
(23,308,o),
(23,247,cs)
);
}
);
width = 183;
},
{
anchors = (
{
name = bottom;
pos = (2950,38);
},
{
name = fatha;
pos = (2922,700);
},
{
name = top;
pos = (2884,470);
}
);
associatedMasterId = m01;
layerId = "ABAB2150-620C-418B-B3ED-83100A3DA3F3";
name = "17 May 21, 05:03";
shapes = (
{
closed = 1;
nodes = (
(-58,0,l),
(2950,0,l),
(2972,0,o),
(2988,14,o),
(2988,36,cs),
(2988,358,o),
(2992,434,o),
(2926,670,c),
(2982,612,l),
(2926,514,o),
(2868,430,o),
(2798,362,c),
(2794,444,l),
(2864,304,o),
(2848,282,o),
(2848,84,c),
(2904,132,l),
(-54,132,l),
(-20,242,l),
(-20,-30,l)
);
}
);
width = 3008;
}
);
metricLeft = "=-20@10";
},
{
glyphname = "hah-ar";
layers = (
{
anchors = (
{
name = center;
pos = (1227,-112);
},
{
name = damma;
pos = (-118,91);
},
{
name = kasra;
pos = (1517,-144);
},
{
name = top;
pos = (479,394);
}
);
backgroundImage = {
alpha = 80;
imagePath = "images/hah-ar.jpg";
locked = 1;
pos = (-204,-379);
scale = (20,20);
};
layerId = m01;
shapes = (
{
closed = 1;
nodes = (
(1814,107,o),
(1814,101,o),
(1810,99,cs),
(1751,69,o),
(1690,40,o),
(1631,11,cs),
(1627,9,o),
(1619,5,o),
(1610,5,cs),
(1269,5,o),
(1049,0,o),
(887,-5,cs),
(810,-7,o),
(668,-2,o),
(556,3,cs),
(379,11,o),
(232,32,o),
(203,157,cs),
(199,174,o),
(169,167,o),
(172,149,cs),
(193,24,o),
(311,-7,o),
(436,-21,cs),
(633,-44,o),
(923,-41,o),
(1233,-33,cs),
(1238,-33,o),
(1238,-39,o),
(1234,-41,cs),
(1192,-63,o),
(1141,-88,o),
(1108,-115,cs),
(1091,-130,o),
(1073,-135,o),
(1054,-136,cs),
(853,-149,o),
(652,-165,o),
(451,-168,cs),
(203,-171,o),
(63,-140,o),
(15,-35,cs),
(-40,86,o),
(64,280,o),
(199,337,cs),
(271,367,o),
(318,351,o),
(375,297,cs),
(455,220,o),
(548,146,o),
(643,166,c),
(675,130,l),
(594,174,o),
(498,227,o),
(429,291,cs),
(425,295,o),
(424,303,o),
(430,308,cs),
(475,350,o),
(524,400,o),
(562,456,cs),
(566,462,o),
(572,462,o),
(576,458,cs),
(712,344,o),
(944,155,o),
(1359,114,cs),
(1527,97,o),
(1624,103,o),
(1808,107,c)
);
}
);
width = 1813;
}
);
metricLeft = "=0";
metricRight = "=0";
unicode = 1581;
},
{
glyphname = "hah-ar.1";
layers = (
{
anchors = (
{
name = center;
pos = (1213,-112);
},
{
name = damma;
pos = (-133,42);
},
{
name = kasra;
pos = (1475,-144);
},
{
name = top;
pos = (465,377);
}
);
backgroundImage = {
alpha = 80;
imagePath = "images/hah-ar.1.jpg";
locked = 1;
pos = (-557,-407);
scale = (20,20);
};
layerId = m01;
shapes = (
{
closed = 1;
nodes = (
(1745,91,o),
(1696,59,o),
(1639,31,cs),
(1611,18,o),
(1570,10,o),
(1542,9,cs),
(1218,-4,o),
(663,-10,o),
(551,-5,cs),
(374,3,o),
(244,26,o),
(212,135,cs),
(207,152,o),
(181,145,o),
(186,127,cs),
(212,25,o),
(327,-14,o),
(437,-21,cs),
(638,-34,o),
(902,-24,o),
(1218,-23,c),
(1165,-51,o),
(1054,-118,o),
(917,-134,cs),
(730,-156,o),
(621,-165,o),
(409,-168,cs),
(161,-171,o),
(64,-140,o),
(16,-35,cs),
(-39,86,o),
(51,260,o),
(187,313,cs),
(243,335,o),
(305,333,o),
(343,297,cs),
(423,220,o),
(506,146,o),
(601,166,c),
(633,130,l),
(558,171,o),
(474,221,o),
(407,280,c),
(460,328,o),
(508,382,o),
(556,446,c),
(694,326,o),
(940,137,o),
(1352,124,cs),
(1524,119,o),
(1606,113,o),
(1798,117,c)
);
}
);
width = 1798;
}
);
metricLeft = "=0";
metricRight = "=0";
},
{
glyphname = "hah-ar.x";
layers = (
{
anchors = (
{
name = center;
pos = (1204,-107);
},
{
name = damma;
pos = (-133,42);
},
{
name = kasra;
pos = (1621,-116);
},
{
name = top;
pos = (925,377);
}
);
backgroundImage = {
alpha = 80;
imagePath = "images/hah-ar.x.jpg";
locked = 1;
pos = (-567,-556);
scale = (20,20);
};
layerId = m01;
shapes = (
{
closed = 1;
nodes = (
(2184,91,o),
(2121,54,o),
(2090,26,cs),
(2066,5,o),
(2030,9,o),
(2002,7,cs),
(1826,-3,o),
(1426,6,o),
(1097,8,cs),
(821,11,o),
(599,10,o),
(548,12,cs),
(356,19,o),
(244,26,o),
(212,135,cs),
(207,152,o),
(181,145,o),
(186,127,cs),
(212,25,o),
(286,-3,o),
(437,-12,cs),
(638,-24,o),
(926,-16,o),
(1242,-15,c),
(1189,-43,o),
(1062,-96,o),
(925,-112,cs),
(738,-134,o),
(621,-142,o),
(409,-145,cs),
(161,-148,o),
(64,-128,o),
(16,-23,cs),
(-39,98,o),
(51,267,o),
(187,320,cs),
(243,342,o),
(311,330,o),
(349,294,cs),
(380,265,o),
(436,189,o),
(551,165,cs),
(737,127,o),
(1077,148,o),
(1136,160,c),
(1125,130,l),
(1050,171,o),
(960,238,o),
(893,297,c),
(946,345,o),
(994,399,o),
(1042,463,c),
(1256,277,o),
(1401,157,o),
(1812,124,cs),
(1984,110,o),
(2045,113,o),
(2237,117,c)
);
}
);
width = 2237;
}
);
metricLeft = "=0";
metricRight = "=0";
},
{
glyphname = "hah-ar.init";
layers = (
{
anchors = (
{
name = bottom;
pos = (591,-73);
},
{
name = top;
pos = (53,304);
}
);
backgroundImage = {
alpha = 80;
angle = 0.5;
imagePath = "images/hah-ar.init.jpg";
locked = 1;
pos = (-450,-284);
scale = (20,20);
};
layerId = m01;
shapes = (
{
closed = 1;
nodes = (
(158,360,o),
(152,362,o),
(145,354,cs),
(98,297,o),
(58,254,o),
(23,231,cs),
(14,225,o),
(9,220,o),
(23,211,cs),
(98,163,o),
(222,113,o),
(300,87,c),
(286,150,l),
(-20,150,l),
(-20,0,l),
(239,3,o),
(541,5,o),
(763,6,cs),
(957,6,o),
(1105,2,o),
(1155,1,cs),
(1167,1,o),
(1212,0,o),
(1228,15,cs),
(1257,41,o),
(1327,63,o),
(1393,93,cs),
(1402,97,o),
(1401,106,o),
(1395,106,cs),
(1213,106,o),
(988,119,o),
(804,133,cs),
(643,145,o),
(380,220,o),
(164,357,c)
);
}
);
width = 1400;
}
);
metricLeft = "=-20";
metricRight = "=0";
},
{
glyphname = "dal-ar";
layers = (
{
anchors = (
{
name = damma;
pos = (-8,226);
},
{
name = fatha;
pos = (716,446);
},
{
name = kasra;
pos = (848,-82);
},
{
name = top;
pos = (1024,403);
}
);
backgroundImage = {
alpha = 100;
imagePath = "1/image-0056.jpg";
pos = (-12957,-3244);
scale = (20,20);
};
layerId = m01;
shapes = (
{
closed = 1;
nodes = (
(407,403,o),
(287,262,o),
(183,145,c),
(144,162,l),
(512,145,o),
(960,146,o),
(1328,152,c),
(1332,150,o),
(1334,146,o),
(1336,140,c),
(954,128,o),
(530,112,o),
(126,136,c),
(206,165,l),
(162,109,o),
(85,49,o),
(0,6,c),
(491,-6,o),
(1024,-1,o),
(1521,-1,cs),
(1541,-1,o),
(1557,21,o),
(1552,51,cs),
(1537,138,o),
(1523,179,o),
(1478,270,c),
(1472,280,o),
(1460,282,o),
(1450,282,cs),
(1112,272,o),
(700,276,o),
(362,288,cs),
(350,288,o),
(348,292,o),
(356,300,cs),
(426,378,o),
(480,446,o),
(532,510,c),
(520,520,l)
);
}
);
width = 1553;
}
);
metricLeft = "=0";
metricRight = "=0";
unicode = 1583;
},
{
glyphname = "dal-ar.fina";
layers = (
{
anchors = (
{
name = damma;
pos = (-38,226);
},
{
name = fatha;
pos = (716,446);
},
{
name = kasra;
pos = (938,-82);
},
{
name = top;
pos = (1024,403);
}
);
layerId = m01;
shapes = (
{
closed = 1;
nodes = (
(404,390,o),
(294,276,o),
(174,166,c),
(428,155,o),
(681,149,o),
(935,149,cs),
(1039,149,o),
(1144,150,o),
(1248,152,c),
(1252,150,o),
(1254,146,o),
(1256,140,c),
(1065,134,o),
(883,129,o),
(698,129,cs),
(524,129,o),
(347,133,o),
(158,144,c),
(116,96,o),
(62,52,o),
(0,6,c),
(311,-1,o),
(622,-6,o),
(932,-6,cs),
(1131,-6,o),
(1329,-4,o),
(1528,0,c),
(1506,-30,l),
(1506,164,l),
(1532,132,l),
(1378,132,l),
(1500,78,l),
(1454,134,o),
(1440,214,o),
(1398,274,cs),
(1392,284,o),
(1380,284,o),
(1370,284,cs),
(1224,280,o),
(1079,278,o),
(934,278,cs),
(744,278,o),
(554,281,o),
(362,288,cs),
(355,288,o),
(351,289,o),
(351,292,cs),
(351,294,o),
(353,297,o),
(356,300,cs),
(426,378,o),
(470,426,o),
(522,490,c),
(510,500,l)
);
}
);
width = 1456;
},
{
anchors = (
{
name = damma;
pos = (-338,226);
},
{
name = fatha;
pos = (666,446);
},
{
name = kasra;
pos = (638,-82);
},
{
name = top;
pos = (894,403);
}
);
associatedMasterId = m01;
attr = {
coordinates = (
100,
0
);
};
backgroundImage = {
alpha = 100;
imagePath = "1/image-0056.jpg";
locked = 1;
pos = (-5659,-5176);
scale = (20,20);
};
layerId = "A9B502D6-BD98-4899-95D2-8C8C92379346";
name = "{100, 0}";
shapes = (
{
closed = 1;
nodes = (
(404,390,o),
(294,276,o),
(174,166,c),
(428,155,o),
(531,149,o),
(697,149,cs),
(765,149,o),
(844,150,o),
(948,152,c),
(952,150,o),
(954,146,o),
(956,140,c),
(765,134,o),
(662,129,o),
(555,129,cs),
(453,129,o),
(347,133,o),
(158,144,c),
(116,96,o),
(62,52,o),
(0,6,c),
(311,-1,o),
(510,-6,o),
(734,-6,cs),
(876,-6,o),
(1029,-4,o),
(1228,0,c),
(1206,-30,l),
(1206,164,l),
(1232,132,l),
(1078,132,l),
(1200,78,l),
(1154,134,o),
(1140,214,o),
(1098,274,cs),
(1092,284,o),
(1080,284,o),
(1070,284,cs),
(924,280,o),
(835,278,o),
(754,278,cs),
(647,278,o),
(554,281,o),
(362,288,cs),
(355,288,o),
(351,289,o),
(351,292,cs),
(351,294,o),
(353,297,o),
(356,300,cs),
(426,378,o),
(470,426,o),
(522,490,c),
(510,500,l)
);
}
);
width = 1156;
}
);
metricLeft = "=0";
},
{
glyphname = "reh-ar";
layers = (
{
anchors = (
{
name = fatha;
pos = (430,652);
},
{
name = top;
pos = (314,382);
}
);
layerId = m01;
shapes = (
{
closed = 1;
nodes = (
(448,490,o),
(438,482,o),
(426,474,cs),
(384,446,o),
(272,322,o),
(220,242,cs),
(212,230,o),
(206,212,o),
(226,204,cs),
(288,176,o),
(380,178,o),
(454,180,c),
(458,176,o),
(460,170,o),
(460,166,c),
(380,154,o),
(264,160,o),
(178,192,c),
(138,144,o),
(60,90,o),
(0,62,c),
(58,14,o),
(438,-26,o),
(598,22,cs),
(638,34,o),
(664,50,o),
(670,90,cs),
(694,240,o),
(570,406,o),
(472,474,cs)
);
}
);
width = 673;
}
);
metricLeft = "=0";
metricRight = "=0";
unicode = 1585;
},
{
glyphname = "reh-ar.1";
layers = (
{
anchors = (
{
name = fatha;
pos = (440,652);
},
{
name = top;
pos = (324,382);
}
);
backgroundImage = {
alpha = 100;
imagePath = "1/image-0056.jpg";
locked = 1;
pos = (-10008,-7023);
scale = (20,20);
};
layerId = m01;
shapes = (
{
closed = 1;
nodes = (
(429,403,o),
(411,405,o),
(400,394,cs),
(362,356,o),
(276,232,o),
(220,162,cs),
(211,151,o),
(196,132,o),
(216,124,cs),
(278,96,o),
(348,98,o),
(422,100,c),
(426,96,o),
(428,90,o),
(428,86,c),
(348,74,o),
(254,80,o),
(168,112,c),
(128,64,o),
(60,-11,o),
(0,-28,c),
(28,-88,o),
(428,-78,o),
(538,-50,cs),
(628,-27,o),
(658,10,o),
(664,61,cs),
(673,141,o),
(508,337,o),
(439,394,cs)
);
}
);
width = 664;
}
);
metricLeft = "=0";
metricRight = "=0";
},
{
glyphname = "reh-ar.fina";
layers = (
{
anchors = (
{
name = fatha;
pos = (412,372);
},
{
name = top;
pos = (302,200);
}
);
layerId = m01;
shapes = (
{
closed = 1;
nodes = (
(414,288,o),
(404,284,o),
(394,276,cs),
(362,250,o),
(252,128,o),
(202,56,cs),
(194,46,o),
(182,28,o),
(200,22,cs),
(256,2,o),
(344,-2,o),
(410,0,c),
(414,-4,o),
(416,-14,o),
(416,-18,c),
(344,-30,o),
(238,-24,o),
(160,4,c),
(124,-38,o),
(54,-102,o),
(0,-126,c),
(54,-170,o),
(396,-192,o),
(540,-154,cs),
(576,-144,o),
(616,-120,o),
(622,-84,cs),
(644,52,o),
(528,214,o),
(434,276,cs)
);
}
);
width = 548;
}
);
metricLeft = "=0";
},
{
glyphname = "seen-ar";
layers = (
{
anchors = (
{
name = fatha;
pos = (369,497);
},
{
name = kasra;
pos = (604,-145);
},
{
name = top;
pos = (483,391);
}
);
backgroundImage = {
alpha = 80;
imagePath = "images/seen-ar.2.jpg";
locked = 1;
pos = (-244,-1177);
scale = (20,20);
};
layerId = m01;
shapes = (
{
closed = 1;
nodes = (
(200,272,o),
(156,201,o),
(118,162,cs),
(111,155,o),
(114,146,o),
(120,145,cs),
(200,125,o),
(261,95,o),
(301,25,cs),
(372,-96,o),
(325,-699,o),
(302,-837,c),
(324,-812,l),
(246,-816,o),
(147,-798,o),
(40,-771,cs),
(35,-770,o),
(31,-770,o),
(28,-773,cs),
(-14,-823,o),
(-68,-871,o),
(-118,-911,cs),
(-127,-919,o),
(-131,-927,o),
(-118,-931,cs),
(28,-977,o),
(192,-993,o),
(379,-978,cs),
(402,-976,o),
(423,-952,o),
(426,-919,cs),
(437,-787,o),
(434,-638,o),
(441,-470,cs),
(449,-295,o),
(467,-113,o),
(472,54,c),
(426,-1,l),
(660,4,ls),
(695,5,o),
(726,28,o),
(726,83,cs),
(726,234,o),
(724,381,o),
(723,532,cs),
(723,545,o),
(716,543,o),
(709,532,cs),
(674,478,o),
(634,416,o),
(597,374,cs),
(589,364,o),
(586,348,o),
(587,337,cs),
(589,313,o),
(598,287,o),
(595,191,c),
(639,175,l),
(566,205,o),
(567,327,o),
(558,480,cs),
(557,490,o),
(549,491,o),
(545,484,cs),
(509,426,o),
(471,370,o),
(435,312,cs),
(431,305,o),
(429,301,o),
(430,295,cs),
(437,255,o),
(441,205,o),
(441,174,c),
(492,151,l),
(404,247,o),
(330,308,o),
(263,332,cs),
(245,339,o),
(237,326,o),
(232,319,cs)
);
}
);
width = 726;
}
);
metricLeft = "=noon-ar";
metricRight = "=0";
unicode = 1587;
},
{
glyphname = "seen-ar.fina";
layers = (
{
anchors = (
{
name = fatha;
pos = (362,495);
},
{
name = kasra;
pos = (604,-147);
},
{
name = top;
pos = (483,389);
}
);
layerId = m01;
shapes = (
{
alignment = -1;
pos = (0,-2);
ref = "seen-ar";
},
{
closed = 1;
nodes = (
(536,-4,o),
(630,-4,o),
(725,0,c),
(725,150,l),
(633,150,l),
(445,0,l)
);
}
);
width = 726;
}
);
},
{
glyphname = "seen-ar.medi";
layers = (
{
anchors = (
{
name = top;
pos = (205,263);
}
);
backgroundImage = {
alpha = 80;
angle = -0.1;
imagePath = "images/seen-ar.medi.jpg";
locked = 1;
pos = (-834,-297);
scale = (20,20);
};
layerId = m01;
shapes = (
{
closed = 1;
nodes = (
(444,0,l),
(-20,0,l),
(-19,150,l),
(93,150,l),
(83,141,o),
(73,125,o),
(63,116,c),
(48,145,o),
(39,175,o),
(19,203,cs),
(15,208,o),
(15,216,o),
(19,220,cs),
(46,247,o),
(83,332,o),
(99,376,cs),
(104,390,o),
(115,390,o),
(119,379,cs),
(147,304,o),
(178,242,o),
(211,184,c),
(163,228,l),
(224,278,o),
(253,367,o),
(260,402,cs),
(262,411,o),
(276,412,o),
(279,398,cs),
(290,345,o),
(306,285,o),
(329,251,c),
(286,263,l),
(355,337,o),
(395,404,o),
(414,446,cs),
(418,454,o),
(431,455,o),
(432,441,cs),
(437,375,o),
(441,301,o),
(442,233,cs),
(442,192,o),
(442,154,o),
(439,120,c),
(401,150,l),
(444,150,l)
);
}
);
width = 444;
}
);
metricLeft = "=-20";
metricRight = "=0";
},
{
glyphname = "seen-ar.init";
layers = (
{
anchors = (
{
name = damma;
pos = (9,255);
},
{
name = top;
pos = (224,277);
}
);
layerId = m01;
shapes = (
{
closed = 1;
nodes = (
(486,228,o),
(483,409,o),
(468,581,c),
(493,572,l),
(443,467,o),
(377,363,o),
(316,309,c),
(349,412,l),
(360,318,o),
(360,230,o),
(363,134,c),
(384,145,l),
(320,235,o),
(318,402,o),
(289,556,c),
(329,539,l),
(301,410,o),
(229,292,o),
(175,216,c),
(175,339,l),
(187,277,o),
(188,156,o),
(232,94,c),
(240,123,l),
(158,195,o),
(139,352,o),
(103,459,c),
(150,514,l),
(111,417,o),
(62,250,o),
(-4,180,c),
(-22,310,l),
(2,242,o),
(42,163,o),
(70,130,c),
(92,70,l),
(116,150,l),
(-40,150,l),
(-20,161,l),
(-20,-26,l),
(-40,0,l),
(461,0,ls),
(487,0,o),
(499,31,o),
(497,56,cs)
);
}
);
width = 497;
}
);
metricLeft = "=20@211";
metricRight = "=0";
},
{
glyphname = "sad-ar";
layers = (
{
anchors = (
{
name = fatha;
pos = (1108,369);
},
{
name = kasra;
pos = (1025,-97);
},
{
name = top;
pos = (748,378);
}
);
backgroundImage = {
alpha = 80;
angle = 0.5;
imagePath = "images/sad-ar.jpg";
locked = 1;
pos = (-275,-842);
scale = (20,20);
};
layerId = m01;
shapes = (
{
closed = 1;
nodes = (
(342,-672,o),
(361,-663,o),
(363,-636,cs),
(371,-530,o),
(388,-184,o),
(407,46,cs),
(426,275,o),
(366,381,o),
(200,446,cs),
(192,449,o),
(187,449,o),
(181,438,cs),
(152,388,o),
(115,338,o),
(76,299,cs),
(70,293,o),
(68,285,o),
(78,281,cs),
(155,248,o),
(263,203,o),
(273,75,cs),
(289,-128,o),
(263,-337,o),
(250,-530,c),
(268,-498,l),
(188,-504,o),
(113,-496,o),
(44,-470,cs),
(37,-467,o),
(30,-467,o),
(26,-472,cs),
(-23,-533,o),
(-71,-590,o),
(-118,-606,cs),
(-126,-609,o),
(-129,-617,o),
(-120,-621,cs),
(3,-671,o),
(164,-686,o),
(321,-674,cs)
);
},
{
closed = 1;
nodes = (
(2077,-6,o),
(2153,-6,o),
(2153,30,cs),
(2153,127,o),
(2125,210,o),
(2075,276,cs),
(2065,290,o),
(2050,288,o),
(2031,288,cs),
(1706,280,o),
(1375,272,o),
(1044,267,cs),
(841,264,o),
(674,266,o),
(496,277,cs),
(443,280,o),
(393,280,o),
(371,311,c),
(348,141,l),
(859,149,o),
(1370,158,o),
(1866,162,cs),
(1890,162,o),
(1899,153,o),
(1902,143,cs),
(1903,139,o),
(1901,134,o),
(1892,134,cs),
(1474,122,o),
(1004,113,o),
(556,113,cs),
(514,113,o),
(476,119,o),
(467,122,cs),
(420,138,o),
(461,167,o),
(445,178,c),
(365,179,l),
(365,0,l),
(633,-1,o),
(987,4,o),
(1262,3,cs),
(1545,2,o),
(1750,-5,o),
(2054,-6,cs)
);
}
);
width = 2153;
}
);
metricLeft = "=noonghunna-ar";
metricRight = "=0";
unicode = 1589;
},
{
glyphname = "sad-ar.fina";
layers = (
{
anchors = (
{
name = fatha;
pos = (1108,373);
},
{
name = kasra;
pos = (1025,-93);
},
{
name = top;
pos = (748,382);
}
);
layerId = m01;
shapes = (
{
pos = (0,4);
ref = "sad-ar";
},
{
closed = 1;
nodes = (
(1964,-4,o),
(2058,-4,o),
(2153,0,c),
(2153,150,l),
(2061,150,l),
(1873,0,l)
);
}
);
width = 2153;
}
);
metricLeft = "=sad-ar";
metricRight = "=0";
},
{
glyphname = "sad-ar.medi";
layers = (
{
anchors = (
{
name = fatha;
pos = (749,394);
},
{
name = kasra;
pos = (883,-82);
},
{
name = top;
pos = (389,368);
}
);
backgroundImage = {
alpha = 80;
angle = 0.7;
imagePath = "images/sad-ar.medi.jpg";
locked = 1;
pos = (-531,-695);
scale = (20,20);
};
layerId = m01;
shapes = (
{
closed = 1;
nodes = (
(155,543,o),
(146,548,o),
(140,535,cs),
(98,442,o),
(54,402,o),
(36,382,cs),
(27,372,o),
(24,363,o),
(27,349,cs),
(42,272,o),
(46,189,o),
(43,105,c),
(77,150,l),
(-20,150,l),
(-20,1,l),
(539,7,o),
(1059,11,o),
(1600,2,c),
(1600,144,l),
(1533,145,l),
(1600,136,l),
(1577,179,o),
(1558,233,o),
(1539,278,cs),
(1532,294,o),
(1516,295,o),
(1505,295,cs),
(1080,288,o),
(668,274,o),
(131,295,c),
(172,230,l),
(163,332,o),
(155,430,o),
(155,532,cs)
);
},
{
closed = 1;
nodes = (
(584,148,o),
(981,158,o),
(1379,161,cs),
(1395,161,o),
(1403,136,o),
(1376,136,cs),
(973,132,o),
(575,116,o),
(188,126,c),
(186,151,l)
);
}
);
width = 1600;
}
);
metricLeft = "=-20";
metricRight = "=0";
},
{
glyphname = "sad-ar.init";
layers = (
{
anchors = (
{
name = fatha;
pos = (833,434);
},
{
name = kasra;
pos = (750,-104);
},
{
name = top;
pos = (473,408);
}
);
backgroundImage = {
alpha = 80;
angle = -0.8;
imagePath = "images/sad-ar.init.jpg";
locked = 1;
pos = (-1965,-569);
scale = (20,20);
};
layerId = m01;
shapes = (
{
closed = 1;
nodes = (
(96,652,o),
(87,643,o),
(83,635,cs),
(52,578,o),
(18,524,o),
(-15,488,cs),
(-25,476,o),
(-24,463,o),
(-22,451,cs),
(-9,360,o),
(5,230,o),
(16,119,c),
(31,150,l),
(-20,150,l),
(-20,0,l),
(384,4,o),
(789,12,o),
(1181,12,cs),
(1395,12,o),
(1609,6,o),
(1823,3,cs),
(1853,3,o),
(1883,5,o),
(1913,6,cs),
(1945,7,o),
(1973,11,o),
(1976,36,cs),
(1989,134,o),
(1965,228,o),
(1919,315,cs),
(1912,328,o),
(1896,333,o),
(1882,333,cs),
(1628,327,o),
(1329,321,o),
(1052,316,cs),
(767,311,o),
(481,311,o),
(196,309,cs),
(176,309,o),
(138,308,o),
(136,327,cs),
(125,419,o),
(131,514,o),
(100,636,cs)
);
},
{
closed = 1;
nodes = (
(335,162,o),
(509,168,o),
(686,170,cs),
(1023,173,o),
(1372,179,o),
(1702,191,cs),
(1717,192,o),
(1746,186,o),
(1746,171,cs),
(1746,167,o),
(1741,165,o),
(1737,165,cs),
(1444,150,o),
(685,142,o),
(160,135,c),
(158,163,l)
);
}
);
width = 1980;
}
);
metricLeft = "=-20@10";
metricRight = "=0";
},
{
glyphname = "tah-ar";
layers = (
{
anchors = (
{
name = damma;
pos = (-90,301);
},
{
name = fatha;
pos = (999,394);
},
{
name = kasra;
pos = (1011,-120);
},
{
name = top;
pos = (674,403);
}
);
backgroundImage = {
alpha = 80;
imagePath = "images/tah-ar.jpg";
locked = 1;
pos = (-289,-418);
scale = (20,20);
};
layerId = m01;
shapes = (
{
closed = 1;
nodes = (
(215,1424,o),
(202,1427,o),
(191,1408,cs),
(158,1353,o),
(122,1303,o),
(77,1258,cs),
(69,1250,o),
(66,1237,o),
(66,1229,cs),
(60,1096,o),
(56,962,o),
(48,829,cs),
(34,603,o),
(-20,103,o),
(8,22,cs),
(12,10,o),
(20,2,o),
(37,2,cs),
(531,2,o),
(1022,18,o),
(1523,13,cs),
(1825,10,o),
(2126,9,o),
(2428,6,cs),
(2547,5,o),
(2664,10,o),
(2785,19,cs),
(2815,21,o),
(2840,31,o),
(2844,69,cs),
(2853,151,o),
(2806,272,o),
(2759,319,cs),
(2746,332,o),
(2733,331,o),
(2720,331,cs),
(1393,302,ls),
(964,293,o),
(188,302,o),
(105,333,c),
(86,165,l),
(901,172,o),
(1717,176,o),
(2518,186,cs),
(2550,186,o),
(2563,174,o),
(2563,166,cs),
(2563,157,o),
(2549,158,o),
(2534,158,cs),
(2162,151,o),
(1787,141,o),
(1418,137,cs),
(990,132,o),
(562,135,o),
(152,134,cs),
(129,134,o),
(127,144,o),
(131,150,cs),
(139,163,o),
(166,165,o),
(184,166,c),
(140,292,l),
(159,496,o),
(176,700,o),
(191,904,cs),
(203,1074,o),
(206,1235,o),
(214,1405,cs)
);
}
);
width = 2845;
}
);
metricLeft = "=00";
metricRight = "=0";
unicode = 1591;
},
{
glyphname = "tah-ar.fina";
layers = (
{
anchors = (
{
name = damma;
pos = (-50,301);
},
{
name = fatha;
pos = (1000,385);
},
{
name = kasra;
pos = (1009,-129);
},
{
name = top;
pos = (675,397);
}
);
backgroundImage = {
alpha = 80;
angle = -0.4;
imagePath = "images/tah-ar.fina.jpg";
locked = 1;
pos = (-273,-232);
scale = (20,20);
};
layerId = m01;
shapes = (
{
closed = 1;
nodes = (
(205,1293,o),
(200,1320,o),
(199,1344,cs),
(198,1379,o),
(178,1363,o),
(176,1346,cs),
(170,1296,o),
(114,1221,o),
(69,1170,cs),
(63,1163,o),
(54,1157,o),
(54,1149,cs),
(54,1133,o),
(68,1109,o),
(66,1067,cs),
(61,968,o),
(55,798,o),
(54,693,cs),
(53,465,o),
(50,98,o),
(14,35,cs),
(11,30,o),
(-3,24,o),
(0,19,c),
(2,13,o),
(22,10,o),
(31,9,cs),
(291,-26,o),
(1021,-5,o),
(1522,-2,cs),
(1842,0,o),
(2319,-6,o),
(2373,0,c),
(2373,150,l),
(2332,202,o),
(2285,269,o),
(2258,308,cs),
(2247,324,o),
(2235,320,o),
(2222,320,cs),
(1394,291,ls),
(1075,280,o),
(565,301,o),
(309,315,cs),
(217,320,o),
(178,313,o),
(183,426,cs),
(186,488,o),
(207,1182,o),
(206,1240,cs)
);
},
{
closed = 1;
nodes = (
(188,175,o),
(191,177,o),
(196,178,c),
(858,160,o),
(1322,163,o),
(2083,168,cs),
(2115,168,o),
(2128,155,o),
(2128,147,cs),
(2128,138,o),
(2114,140,o),
(2099,140,cs),
(1872,128,o),
(1645,127,o),
(1418,125,cs),
(999,123,o),
(315,146,o),
(229,155,cs),
(199,158,o),
(188,164,o),
(188,170,cs)
);
}
);
width = 2373;
}
);
metricLeft = "=0";
metricRight = "=0";
},
{
glyphname = "tah-ar.medi";
layers = (
{
anchors = (
{
name = damma;
pos = (-50,301);
},
{
name = fatha;
pos = (1000,385);
},
{
name = kasra;
pos = (1009,-129);
},
{
name = top;
pos = (635,397);
}
);
backgroundImage = {
alpha = 80;
angle = 0.9;
imagePath = "images/tah-ar.medi.jpg";
locked = 1;
pos = (-729,-485);
scale = (20,20);
};
layerId = m01;
shapes = (
{
closed = 1;
nodes = (
(1720,150,l),
(1699,196,o),
(1679,243,o),
(1664,275,cs),
(1646,313,o),
(1625,317,o),
(1598,316,cs),
(1123,300,o),
(410,290,o),
(125,311,c),
(120,162,l),
(579,167,o),
(1038,164,o),
(1497,168,cs),
(1506,168,o),
(1510,139,o),
(1496,139,cs),
(1012,139,o),
(539,133,o),
(55,125,c),
(22,0,l),
(601,-1,o),
(1162,5,o),
(1720,4,c)
);
},
{
closed = 1;
nodes = (
(165,210,o),
(158,418,o),
(154,705,cs),
(153,787,o),
(161,938,o),
(159,1093,cs),
(159,1153,o),
(156,1215,o),
(150,1277,cs),
(148,1295,o),
(136,1298,o),
(127,1287,c),
(96,1239,o),
(62,1190,o),
(30,1147,cs),
(23,1137,o),
(22,1130,o),
(27,1109,cs),
(32,1086,o),
(38,1062,o),
(38,997,cs),
(38,722,o),
(52,334,o),
(18,128,c),
(65,146,l),
(-20,149,l),
(-20,0,l),
(169,0,l)
);
}
);
width = 1720;
}
);
metricLeft = "=-20";
metricRight = "=0";
},
{
glyphname = "tah-ar.init";
layers = (
{
anchors = (
{
name = damma;
pos = (-58,364);
},
{
name = fatha;
pos = (689,432);
},
{
name = kasra;
pos = (698,-102);
},
{
name = top;
pos = (420,377);
}
);
backgroundImage = {
alpha = 80;
angle = 0.5;
imagePath = "images/tah-ar.init.jpg";
locked = 1;
pos = (-678,-274);
scale = (20,20);
};
layerId = m01;
shapes = (
{
closed = 1;
nodes = (
(141,1361,o),
(126,1369,o),
(115,1351,cs),
(85,1302,o),
(45,1248,o),
(15,1217,cs),
(6,1208,o),
(9,1193,o),
(11,1178,cs),
(26,1084,o),
(34,935,o),
(34,837,cs),
(34,595,o),
(22,353,o),
(24,110,c),
(39,150,l),
(-20,150,l),
(-20,3,l),
(373,5,o),
(767,5,o),
(1160,7,cs),
(1454,8,o),
(1756,2,o),
(2050,5,cs),
(2092,5,o),
(2112,28,o),
(2115,70,cs),
(2121,147,o),
(2098,222,o),
(2054,287,cs),
(2043,304,o),
(2025,306,o),
(2010,305,cs),
(1731,292,o),
(1467,292,o),
(1195,285,cs),
(866,277,o),
(537,282,o),
(208,287,cs),
(174,288,o),
(147,304,o),
(147,326,cs),
(150,576,o),
(151,821,o),
(151,1071,cs),
(151,1164,o),
(146,1254,o),
(142,1340,cs)
);
},
{
closed = 1;
nodes = (
(733,156,o),
(1290,163,o),
(1863,163,cs),
(1876,163,o),
(1875,145,o),
(1864,145,cs),
(1305,131,o),
(768,133,o),
(209,127,cs),
(192,127,o),
(144,129,o),
(144,146,cs),
(144,152,o),
(154,154,o),
(160,154,cs)
);
}
);
width = 2116;
}
);
metricLeft = "=-20";
metricRight = "=0";
},
{
glyphname = "ain-ar";
layers = (
{
anchors = (
{
name = damma;
pos = (-85,11);
},
{
name = fatha;
pos = (584,715);
},
{
name = kasra;
pos = (1370,-98);
},
{
name = top;
pos = (545,533);
}
);
backgroundImage = {
alpha = 80;
imagePath = "images/ain-ar.1.jpg";
locked = 1;
pos = (-231,-498);
scale = (20,20);
};
layerId = m01;
shapes = (
{
closed = 1;
nodes = (
(572,551,o),
(506,471,o),
(432,362,cs),
(421,346,o),
(417,327,o),
(420,304,cs),
(429,242,o),
(462,183,o),
(524,127,c),
(581,145,l),
(527,158,o),
(475,148,o),
(397,249,cs),
(343,320,o),
(297,346,o),
(216,336,cs),
(121,324,o),
(-9,207,o),
(0,22,cs),
(5,-73,o),
(59,-146,o),
(178,-169,cs),
(408,-213,o),
(798,-170,o),
(1107,-119,cs),
(1122,-116,o),
(1138,-104,o),
(1153,-96,cs),
(1187,-78,o),
(1220,-54,o),
(1254,-36,c),
(1271,-29,o),
(1269,-22,o),
(1257,-22,c),
(1002,-31,o),
(727,-35,o),
(450,-23,cs),
(383,-20,o),
(297,-7,o),
(246,26,cs),
(208,50,o),
(188,74,o),
(173,108,cs),
(165,125,o),
(187,133,o),
(193,117,cs),
(207,83,o),
(231,56,o),
(277,31,cs),
(369,-20,o),
(607,-1,o),
(822,-2,cs),
(1034,-3,o),
(1441,-9,o),
(1459,-9,cs),
(1476,-9,o),
(1495,-8,o),
(1513,3,cs),
(1564,36,o),
(1631,98,o),
(1676,112,cs),
(1698,119,o),
(1687,130,o),
(1672,129,cs),
(1389,103,o),
(1132,119,o),
(900,179,cs),
(770,213,o),
(664,298,o),
(577,427,cs),
(564,446,o),
(557,479,o),
(571,502,cs),
(598,547,o),
(627,573,o),
(662,614,cs),
(673,626,o),
(659,644,o),
(646,630,cs)
);
}
);
width = 1688;
}
);
metricLeft = "=0";
metricRight = "=0";
unicode = 1593;
},
{
glyphname = "ain-ar.fina";
layers = (
{
anchors = (
{
name = damma;
pos = (17,-91);
},
{
name = fatha;
pos = (192,607);
},
{
name = top;
pos = (279,512);
}
);
backgroundImage = {
alpha = 80;
angle = -1.3;
imagePath = "images/seen-ar.init.2.jpg";
locked = 1;
pos = (-127,-910);
scale = (20,20);
};
layerId = m01;
shapes = (
{
closed = 1;
nodes = (
(329,150,l),
(362,135,l),
(357,280,o),
(356,414,o),
(346,570,cs),
(345,579,o),
(338,582,o),
(333,566,cs),
(312,503,o),
(235,419,o),
(192,355,c),
(262,306,l),
(211,375,o),
(176,442,o),
(115,503,cs),
(111,507,o),
(104,508,o),
(100,497,cs),
(90,468,o),
(37,401,o),
(3,348,c),
(-1,341,o),
(-1,336,o),
(5,329,cs),
(91,222,o),
(249,49,o),
(228,-49,c),
(249,55,l),
(217,-102,o),
(154,-408,o),
(159,-564,cs),
(165,-735,o),
(329,-852,o),
(556,-854,cs),
(741,-857,o),
(965,-782,o),
(1164,-607,cs),
(1176,-597,o),
(1171,-585,o),
(1156,-593,cs),
(971,-690,o),
(789,-707,o),
(606,-687,cs),
(401,-665,o),
(271,-552,o),
(271,-374,cs),
(271,-309,o),
(302,-153,o),
(342,53,c),
(302,0,l),
(364,0,l),
(364,150,l)
);
}
);
width = 364;
}
);
metricLeft = "=0";
metricRight = "=0@10";
},
{
glyphname = "ain-ar.medi";
layers = (
{
anchors = (
{
name = fatha;
pos = (275,627);
},
{
name = kasra;
pos = (335,-148);
},
{
name = top;
pos = (362,498);
}
);
layerId = m01;
shapes = (
{
closed = 1;
nodes = (
(480,180,l),
(554,150,l),
(406,150,l),
(476,118,l),
(486,248,o),
(478,416,o),
(447,552,cs),
(445,560,o),
(441,560,o),
(436,553,cs),
(380,477,o),
(315,407,o),
(246,344,c),
(360,338,l),
(295,380,o),
(227,432,o),
(183,493,cs),
(179,498,o),
(176,498,o),
(173,494,cs),
(130,435,o),
(83,377,o),
(30,332,cs),
(23,326,o),
(22,322,o),
(27,317,cs),
(93,251,o),
(169,192,o),
(250,138,c),
(280,150,l),
(-46,150,l),
(-20,164,l),
(-20,-20,l),
(-46,0,l),
(554,0,l),
(480,-30,l)
);
}
);
width = 480;
}
);
metricLeft = "=-20";
metricRight = "=0";
},
{
glyphname = "ain-ar.init";
layers = (
{
anchors = (
{
name = fatha;
pos = (94,600);
},
{
name = kasra;
pos = (497,-115);
},
{
name = top;
pos = (245,527);
}
);
layerId = m01;
shapes = (
{
closed = 1;
nodes = (
(44,302,ls),
(-19,233,o),
(56,124,o),
(154,104,c),
(176,150,l),
(-56,150,l),
(-20,198,l),
(-20,-36,l),
(-52,0,l),
(287,-4,o),
(606,0,o),
(945,0,cs),
(953,0,o),
(962,0,o),
(972,9,cs),
(1002,37,o),
(1042,74,o),
(1098,107,cs),
(1101,109,o),
(1102,114,o),
(1096,114,cs),
(883,106,o),
(647,115,o),
(456,162,cs),
(270,208,o),
(122,359,o),
(184,428,cs),
(293,550,ls),
(302,560,o),
(290,571,o),
(281,562,cs)
);
}
);
width = 1100;
}
);
metricLeft = "=-20";
metricRight = "=0";
},
{
glyphname = "ain-ar.init.1";
layers = (
{
anchors = (
{
name = fatha;
pos = (120,627);
},
{
name = kasra;
pos = (515,-115);
},
{
name = top;
pos = (243,558);
}
);
layerId = m01;
shapes = (
{
closed = 1;
nodes = (
(1141,98,o),
(1139,106,o),
(1133,106,cs),
(930,98,o),
(642,109,o),
(452,160,cs),
(266,210,o),
(119,378,o),
(174,452,cs),
(209,499,o),
(251,543,o),
(289,582,cs),
(296,590,o),
(286,604,o),
(277,594,cs),
(194,507,o),
(113,421,o),
(42,336,cs),
(-18,265,o),
(54,124,o),
(152,104,c),
(184,150,l),
(-42,150,l),
(-20,198,l),
(-20,-36,l),
(-48,0,l),
(285,-4,o),
(594,0,o),
(925,0,cs),
(949,0,o),
(972,7,o),
(985,15,cs),
(1035,48,o),
(1078,76,o),
(1129,95,c)
);
}
);
width = 1138;
}
);
metricLeft = "=-20";
metricRight = "=0";
},
{
glyphname = "kaf-ar.init";
layers = (
{
backgroundImage = {
alpha = 100;
imagePath = "1/image-0056.jpg";
pos = (-3028,-5236);
scale = (20,20);
};
layerId = m01;
shapes = (
{
closed = 1;
nodes = (
(-91,0,l),
(163,2,o),
(838,9,o),
(1092,9,cs),
(1294,9,o),
(1500,8,o),
(1705,8,cs),
(1739,8,o),
(1801,18,o),
(1801,52,cs),
(1801,104,o),
(1791,158,o),
(1781,208,cs),
(1767,282,o),
(1753,315,o),
(1665,310,cs),
(1417,296,o),
(988,288,o),
(653,288,cs),
(494,288,o),
(355,290,o),
(267,294,cs),
(231,296,o),
(178,306,o),
(178,330,cs),
(178,334,o),
(179,339,o),
(183,344,cs),
(229,410,o),
(281,486,o),
(327,552,c),
(305,566,l),
(209,444,o),
(115,310,o),
(31,212,cs),
(23,203,o),
(20,196,o),
(20,189,cs),
(20,175,o),
(35,166,o),
(53,162,cs),
(72,158,o),
(98,158,o),
(126,158,cs),
(144,158,o),
(164,158,o),
(183,158,cs),
(308,159,o),
(534,160,o),
(771,160,cs),
(1058,160,o),
(1363,158,o),
(1531,150,c),
(1533,146,o),
(1533,144,o),
(1531,140,c),
(989,136,o),
(449,136,o),
(-93,132,c),
(-20,222,l),
(-20,-90,l)
);
}
);
width = 1801;
},
{
associatedMasterId = m01;
backgroundImage = {
alpha = 100;
imagePath = "1/image-0056.jpg";
pos = (-3319,-5176);
scale = (20,20);
};
layerId = "B8BA4F85-A6BE-4284-99F4-178241BCA683";
name = foo;
shapes = (
{
closed = 1;
nodes = (
(-78,0,l),
(65,1,o),
(208,3,o),
(351,4,cs),
(483,5,o),
(616,8,o),
(748,8,cs),
(782,8,o),
(844,18,o),
(844,52,cs),
(844,104,o),
(834,158,o),
(824,208,cs),
(810,282,o),
(796,312,o),
(708,310,c),
(633,307,o),
(558,307,o),
(483,306,cs),
(415,305,o),
(348,304,o),
(280,302,cs),
(238,301,o),
(172,310,o),
(196,344,cs),
(242,410,o),
(294,486,o),
(340,552,c),
(328,566,l),
(232,444,o),
(138,310,o),
(54,212,cs),
(30,184,o),
(38,162,o),
(66,162,cs),
(98,162,o),
(148,158,o),
(196,158,cs),
(260,158,o),
(325,160,o),
(390,162,cs),
(465,165,o),
(539,167,o),
(614,168,c),
(616,164,o),
(616,154,o),
(614,150,c),
(463,139,o),
(77,133,o),
(-80,132,c),
(0,222,l),
(0,-90,l)
);
}
);
visible = 1;
width = 864;
},
{
associatedMasterId = m01;
attr = {
coordinates = (
100,
0
);
};
backgroundImage = {
alpha = 100;
imagePath = "1/image-0056.jpg";
pos = (-3339,-5176);
scale = (20,20);
};
layerId = "B148EE45-354A-452E-A76A-590C279F9F5C";
name = "{100, 0} 16 May 21, 21:57";
shapes = (
{
closed = 1;
nodes = (
(-98,0,l),
(163,2,o),
(305,4,o),
(415,5,cs),
(723,8,o),
(594,8,o),
(729,8,cs),
(763,8,o),
(825,18,o),
(825,52,cs),
(825,104,o),
(815,158,o),
(805,208,cs),
(791,282,o),
(777,313,o),
(689,310,cs),
(541,305,o),
(501,305,o),
(418,305,cs),
(377,305,o),
(335,303,o),
(260,302,cs),
(224,302,o),
(171,306,o),
(171,330,cs),
(171,334,o),
(172,339,o),
(176,344,cs),
(222,410,o),
(274,486,o),
(320,552,c),
(308,566,l),
(212,444,o),
(118,310,o),
(34,212,cs),
(26,203,o),
(20,190,o),
(20,183,cs),
(20,169,o),
(28,163,o),
(46,162,cs),
(85,159,o),
(157,158,o),
(176,158,cs),
(201,158,o),
(337,162,o),
(375,163,cs),
(451,165,o),
(556,169,o),
(594,168,c),
(595,166,o),
(596,162,o),
(596,159,cs),
(596,155,o),
(595,151,o),
(594,149,c),
(443,139,o),
(57,133,o),
(-100,132,c),
(-20,222,l),
(-20,-90,l)
);
}
);
width = 825;
},
{
associatedMasterId = m01;
backgroundImage = {
alpha = 100;
imagePath = "1/image-0056.jpg";
pos = (-3015,-5236);
scale = (20,20);
};
layerId = "95D6FC64-EA15-4FF1-A4AA-3EEFE8D5718C";
name = "16 May 21, 21:57";
shapes = (
{
closed = 1;
nodes = (
(-78,0,l),
(210,2,o),
(504,6,o),
(804,8,cs),
(1102,10,o),
(1410,8,o),
(1718,8,cs),
(1752,8,o),
(1814,18,o),
(1814,52,cs),
(1814,104,o),
(1804,158,o),
(1794,208,cs),
(1780,282,o),
(1766,312,o),
(1678,310,cs),
(1442,302,o),
(1162,290,o),
(914,288,cs),
(682,286,o),
(452,286,o),
(280,294,cs),
(238,296,o),
(172,310,o),
(196,344,cs),
(242,410,o),
(294,486,o),
(340,552,c),
(318,566,l),
(222,444,o),
(128,310,o),
(44,212,cs),
(20,184,o),
(40,168,o),
(66,162,cs),
(98,156,o),
(148,158,o),
(196,158,cs),
(488,160,o),
(782,158,o),
(1008,160,cs),
(1230,162,o),
(1388,156,o),
(1544,150,c),
(1546,146,o),
(1546,144,o),
(1544,140,c),
(1002,136,o),
(462,136,o),
(-80,132,c),
(0,222,l),
(0,-90,l)
);
}
);
width = 1834;
}
);
metricLeft = "=-20";
metricRight = "=0";
},
{
glyphname = "lam-ar.medi";
layers = (
{
anchors = (
{
name = fatha;
pos = (-172,1132);
},
{
name = kasra;
pos = (120,-81);
}
);
backgroundImage = {
alpha = 100;
imagePath = "1/image-0056.jpg";
locked = 1;
pos = (-3508,-7010);
scale = (20,20);
};
layerId = m01;
shapes = (
{
closed = 1;
nodes = (
(-67,0,l),
(92,0,l),
(273,0,l),
(228,-45,l),
(228,177,l),
(258,150,l),
(170,150,o),
(134,168,o),
(134,300,cs),
(134,572,o),
(141,948,o),
(118,1312,c),
(136,1299,l),
(95,1207,o),
(33,1117,o),
(-44,1066,c),
(-20,1119,l),
(17,1035,o),
(18,890,o),
(19,746,cs),
(22,83,l),
(87,150,l),
(-82,150,l),
(-20,190,l),
(-20,-34,l)
);
}
);
width = 168;
}
);
metricLeft = "=-20";
},
{
glyphname = "lam-ar.medi.ain";
layers = (
{
anchors = (
{
name = fatha;
pos = (-170,1132);
}
);
layerId = m01;
shapes = (
{
closed = 1;
nodes = (
(374,0,l),
(374,150,l),
(232,150,l),
(353,137,l),
(263,196,o),
(129,309,o),
(100,357,c),
(125,276,l),
(137,538,o),
(153,904,o),
(116,1264,cs),
(115,1272,o),
(112,1275,o),
(108,1268,cs),
(75,1208,o),
(32,1155,o),
(-11,1114,cs),
(-19,1107,o),
(-21,1103,o),
(-18,1091,cs),
(11,985,o),
(20,743,o),
(20,576,cs),
(20,402,o),
(8,230,o),
(0,56,cs),
(-2,30,o),
(20,-2,o),
(94,0,c)
);
}
);
width = 352;
}
);
metricLeft = "=0@56";
},
{
glyphname = "lam-ar.init";
layers = (
{
backgroundImage = {
alpha = 100;
imagePath = "1/image-0056.jpg";
locked = 1;
pos = (-8980,-8864);
scale = (20,20);
};
layerId = m01;
shapes = (
{
closed = 1;
nodes = (
(-48,0,l),
(112,0,ls),
(130,0,o),
(158,12,o),
(158,30,cs),
(156,172,o),
(150,392,o),
(148,572,cs),
(146,794,o),
(162,1018,o),
(144,1240,c),
(104,1168,o),
(64,1100,o),
(10,1048,c),
(26,994,o),
(34,934,o),
(34,820,cs),
(34,621,o),
(30,401,o),
(23,135,c),
(69,150,l),
(-46,150,l),
(-20,230,l),
(-20,-34,l)
);
}
);
width = 178;
}
);
metricLeft = "=-20";
},
{
glyphname = "meem-ar";
kernRight = meem;
layers = (
{
anchors = (
{
name = kasra;
pos = (686,-114);
}
);
layerId = m01;
shapes = (
{
closed = 1;
nodes = (
(894,-22,o),
(922,22,o),
(922,142,cs),
(922,304,o),
(820,500,o),
(676,500,cs),
(528,500,o),
(386,318,o),
(386,128,cs),
(386,2,o),
(538,-22,o),
(660,-22,cs)
);
},
{
closed = 1;
nodes = (
(444,130,l),
(363,126,o),
(276,131,o),
(194,148,cs),
(183,150,o),
(176,148,o),
(171,143,cs),
(123,95,o),
(68,57,o),
(8,21,cs),
(-2,15,o),
(-3,7,o),
(9,6,cs),
(216,-7,o),
(458,-22,o),
(660,-22,c)
);
},
{
closed = 1;
nodes = (
(660,234,o),
(654,240,o),
(654,247,cs),
(654,254,o),
(660,260,o),
(667,260,cs),
(674,260,o),
(680,254,o),
(680,247,cs),
(680,240,o),
(674,234,o),
(667,234,cs)
);
}
);
width = 922;
},
{
associatedMasterId = m01;
layerId = "E0CE7A6A-A561-47FC-A655-1D4A4B2AE5B5";
name = "26 Apr 21, 22:21";
shapes = (
{
closed = 1;
nodes = (
(914,-24,o),
(956,10,o),
(956,128,cs),
(956,290,o),
(850,486,o),
(708,486,cs),
(564,486,o),
(442,324,o),
(442,114,cs),
(442,8,o),
(530,-24,o),
(708,-24,cs)
);
},
{
closed = 1;
nodes = (
(706,210,o),
(702,214,o),
(702,224,cs),
(702,232,o),
(706,236,o),
(716,236,cs),
(724,236,o),
(728,232,o),
(728,224,cs),
(728,214,o),
(724,210,o),
(716,210,cs)
);
}
);
width = 950;
},
{
associatedMasterId = m01;
layerId = "68EBDF7B-15A5-46E4-9C57-C98FC85622D4";
name = "26 Apr 21, 22:20";
shapes = (
{
closed = 1;
nodes = (
(928,-22,o),
(956,24,o),
(956,142,cs),
(956,304,o),
(854,500,o),
(710,500,cs),
(560,500,o),
(420,318,o),
(420,128,c),
(352,128,o),
(282,134,o),
(214,152,c),
(158,94,o),
(92,50,o),
(20,8,c),
(236,-6,o),
(490,-22,o),
(702,-22,cs)
);
},
{
closed = 1;
nodes = (
(692,234,o),
(688,238,o),
(688,248,cs),
(688,256,o),
(692,260,o),
(702,260,cs),
(710,260,o),
(714,256,o),
(714,248,cs),
(714,238,o),
(710,234,o),
(702,234,cs)
);
}
);
width = 950;
}
);
metricLeft = "=0";
metricRight = "=0";
unicode = 1605;
},
{
glyphname = "meem-ar.fina";
layers = (
{
anchors = (
{
name = kasra;
pos = (691,-104);
}
);
layerId = m01;
shapes = (
{
closed = 1;
nodes = (
(900,-1,o),
(928,22,o),
(928,142,cs),
(928,304,o),
(826,500,o),
(682,500,cs),
(534,500,o),
(392,318,o),
(392,128,cs),
(392,2,o),
(544,-1,o),
(666,-1,cs)
);
},
{
closed = 1;
nodes = (
(445,143,l),
(363,136,o),
(277,136,o),
(192,153,cs),
(182,155,o),
(176,153,o),
(173,149,cs),
(125,97,o),
(69,56,o),
(8,17,cs),
(0,12,o),
(-5,5,o),
(8,5,cs),
(203,-1,o),
(723,-8,o),
(928,-1,c)
);
},
{
closed = 1;
nodes = (
(666,234,o),
(660,240,o),
(660,247,cs),
(660,254,o),
(666,260,o),
(673,260,cs),
(680,260,o),
(686,254,o),
(686,247,cs),
(686,240,o),
(680,234,o),
(673,234,cs)
);
},
{
closed = 1;
nodes = (
(928,150,l),
(633,150,l),
(633,1,l),
(928,-1,l)
);
}
);
width = 928;
},
{
associatedMasterId = m01;
layerId = "E0CE7A6A-A561-47FC-A655-1D4A4B2AE5B5";
name = "26 Apr 21, 22:21";
shapes = (
{
closed = 1;
nodes = (
(914,-24,o),
(956,10,o),
(956,128,cs),
(956,290,o),
(850,486,o),
(708,486,cs),
(564,486,o),
(442,324,o),
(442,114,cs),
(442,8,o),
(530,-24,o),
(708,-24,cs)
);
},
{
closed = 1;
nodes = (
(706,210,o),
(702,214,o),
(702,224,cs),
(702,232,o),
(706,236,o),
(716,236,cs),
(724,236,o),
(728,232,o),
(728,224,cs),
(728,214,o),
(724,210,o),
(716,210,cs)
);
}
);
width = 950;
},
{
associatedMasterId = m01;
layerId = "68EBDF7B-15A5-46E4-9C57-C98FC85622D4";
name = "26 Apr 21, 22:20";
shapes = (
{
closed = 1;
nodes = (
(928,-22,o),
(956,24,o),
(956,142,cs),
(956,304,o),
(854,500,o),
(710,500,cs),
(560,500,o),
(420,318,o),
(420,128,c),
(352,128,o),
(282,134,o),
(214,152,c),
(158,94,o),
(92,50,o),
(20,8,c),
(236,-6,o),
(490,-22,o),
(702,-22,cs)
);
},
{
closed = 1;
nodes = (
(692,234,o),
(688,238,o),
(688,248,cs),
(688,256,o),
(692,260,o),
(702,260,cs),
(710,260,o),
(714,256,o),
(714,248,cs),
(714,238,o),
(710,234,o),
(702,234,cs)
);
}
);
width = 950;
}
);
metricLeft = "=0";
metricRight = "=0";
},
{
glyphname = "meem-ar.medi";
layers = (
{
anchors = (
{
name = kasra;
pos = (310,-134);
}
);
backgroundImage = {
alpha = 80;
angle = -2.5;
imagePath = "images/meem-ar.medi.jpg";
locked = 1;
pos = (-335,-276);
scale = (20,20);
};
layerId = m01;
shapes = (
{
closed = 1;
nodes = (
(424,-18,o),
(519,-4,o),
(519,123,cs),
(519,246,o),
(390,504,o),
(251,504,cs),
(130,504,o),
(0,333,o),
(0,112,cs),
(0,15,o),
(91,-17,o),
(281,-18,cs)
);
},
{
closed = 1;
nodes = (
(539,150,l),
(-70,150,l),
(-70,1,l),
(539,-1,l)
);
},
{
closed = 1;
nodes = (
(274,213,o),
(268,219,o),
(268,226,cs),
(268,233,o),
(274,239,o),
(281,239,cs),
(288,239,o),
(294,233,o),
(294,226,cs),
(294,219,o),
(288,213,o),
(281,213,cs)
);
}
);
width = 539;
}
);
},
{
glyphname = "meem-ar.medi.alt";
kernRight = meem;
layers = (
{
anchors = (
{
name = kasra;
pos = (302,-134);
}
);
background = {
backgroundImage = {
imagePath = "1/image-0056.jpg";
locked = 1;
pos = (-5495,-4420);
scale = (10,10);
};
};
layerId = m01;
shapes = (
{
closed = 1;
nodes = (
(472,-26,o),
(518,8,o),
(518,126,cs),
(518,288,o),
(408,484,o),
(266,484,cs),
(122,484,o),
(0,322,o),
(0,112,cs),
(0,6,o),
(88,-26,o),
(266,-26,cs)
);
},
{
closed = 1;
nodes = (
(266,208,o),
(260,214,o),
(260,221,cs),
(260,228,o),
(266,234,o),
(273,234,cs),
(280,234,o),
(286,228,o),
(286,221,cs),
(286,214,o),
(280,208,o),
(273,208,cs)
);
}
);
width = 518;
}
);
metricLeft = "=0";
metricRight = "=0";
},
{
glyphname = "meem-ar.init";
kernRight = meem;
layers = (
{
anchors = (
{
name = fatha;
pos = (289,640);
},
{
name = kasra;
pos = (350,-164);
}
);
backgroundImage = {
alpha = 100;
imagePath = "1/image-0056.jpg";
locked = 1;
pos = (-6741,-7014);
scale = (20,20);
};
layerId = m01;
shapes = (
{
closed = 1;
nodes = (
(504,0,o),
(516,34,o),
(516,117,cs),
(516,314,o),
(390,529,o),
(268,529,cs),
(128,529,o),
(-16,348,o),
(-2,164,cs),
(6,56,o),
(100,0,o),
(302,0,cs)
);
},
{
closed = 1;
nodes = (
(269,248,o),
(263,254,o),
(263,261,cs),
(263,268,o),
(269,274,o),
(276,274,cs),
(283,274,o),
(289,268,o),
(289,261,cs),
(289,254,o),
(283,248,o),
(276,248,cs)
);
},
{
closed = 1;
nodes = (
(-20,0,l),
(302,0,l),
(302,150,l),
(-20,150,l)
);
}
);
width = 516;
}
);
metricLeft = "=-20";
metricRight = "=0";
},
{
glyphname = "meem-ar.init.1";
kernRight = meem;
layers = (
{
anchors = (
{
name = fatha;
pos = (289,574);
},
{
name = kasra;
pos = (350,-164);
}
);
layerId = m01;
shapes = (
{
closed = 1;
nodes = (
(294,0,l),
(500,0,o),
(528,8,o),
(528,126,cs),
(528,288,o),
(374,468,o),
(274,468,cs),
(150,468,o),
(0,322,o),
(0,112,c),
(0,0,l)
);
},
{
closed = 1;
nodes = (
(294,208,o),
(288,214,o),
(288,221,cs),
(288,228,o),
(294,234,o),
(301,234,cs),
(308,234,o),
(314,228,o),
(314,221,cs),
(314,214,o),
(308,208,o),
(301,208,cs)
);
}
);
width = 528;
}
);
metricLeft = "=0";
metricRight = "=0";
},
{
glyphname = "meem-ar.init.alt";
layers = (
{
anchors = (
{
name = kasra;
pos = (350,-164);
}
);
backgroundImage = {
alpha = 100;
imagePath = "1/image-0056.jpg";
locked = 1;
pos = (-11512,-8844);
scale = (20,20);
};
layerId = m01;
shapes = (
{
closed = 1;
nodes = (
(504,-6,o),
(536,28,o),
(536,146,cs),
(536,308,o),
(420,504,o),
(278,504,cs),
(128,504,o),
(-16,342,o),
(-2,158,cs),
(6,50,o),
(100,-6,o),
(302,-6,cs)
);
},
{
closed = 1;
nodes = (
(284,232,o),
(278,238,o),
(278,245,cs),
(278,252,o),
(284,258,o),
(291,258,cs),
(298,258,o),
(304,252,o),
(304,245,cs),
(304,238,o),
(298,232,o),
(291,232,cs)
);
}
);
width = 536;
}
);
metricRight = "=0";
},
{
glyphname = "noonghunna-ar";
layers = (
{
anchors = (
{
name = fatha;
pos = (114,342);
},
{
name = kasra;
pos = (538,-413);
},
{
name = top;
pos = (58,210);
}
);
backgroundImage = {
alpha = 100;
imagePath = "1/image-0056.jpg";
pos = (-11099,-3240);
scale = (20,20);
};
layerId = m01;
shapes = (
{
closed = 1;
nodes = (
(398,-882,o),
(410,-862,o),
(410,-838,cs),
(410,-592,o),
(422,-346,o),
(418,-100,cs),
(414,138,o),
(328,256,o),
(138,316,c),
(0,136,l),
(104,120,o),
(220,64,o),
(262,-44,cs),
(318,-190,o),
(302,-474,o),
(286,-724,c),
(198,-732,o),
(102,-720,o),
(20,-692,c),
(-18,-758,o),
(-66,-820,o),
(-126,-866,c),
(28,-908,o),
(218,-908,o),
(370,-886,cs)
);
}
);
width = 419;
}
);
metricLeft = "=0@136";
metricRight = "=0";
unicode = 1722;
},
{
glyphname = "noonghunna-ar.1";
layers = (
{
anchors = (
{
name = fatha;
pos = (120,342);
},
{
name = kasra;
pos = (544,-413);
},
{
name = top;
pos = (64,250);
}
);
backgroundImage = {
alpha = 100;
imagePath = "1/image-0056.jpg";
locked = 1;
pos = (-11093,-3240);
scale = (20,20);
};
layerId = m01;
shapes = (
{
closed = 1;
nodes = (
(414,-882,o),
(426,-862,o),
(426,-838,cs),
(426,-592,o),
(421,-306,o),
(417,-60,cs),
(413,191,o),
(324,289,o),
(112,345,c),
(171,382,l),
(-21,130,l),
(-22,159,l),
(88,150,o),
(222,94,o),
(268,-24,cs),
(324,-170,o),
(308,-474,o),
(292,-724,c),
(194,-733,o),
(117,-737,o),
(-1,-702,c),
(90,-666,l),
(50,-742,o),
(-28,-837,o),
(-102,-894,c),
(-108,-869,l),
(45,-908,o),
(238,-907,o),
(386,-886,cs)
);
}
);
width = 426;
}
);
metricLeft = "=0@158";
metricRight = "=0";
},
{
glyphname = "noonghunna-ar.fina";
layers = (
{
anchors = (
{
name = fatha;
pos = (114,342);
},
{
name = kasra;
pos = (538,-413);
},
{
name = top;
pos = (58,210);
}
);
layerId = m01;
shapes = (
{
closed = 1;
nodes = (
(419,0,l),
(419,150,l),
(327,150,l),
(327,0,l)
);
},
{
ref = "noonghunna-ar";
}
);
width = 419;
}
);
metricLeft = "=noonghunna-ar";
},
{
glyphname = "heh-ar";
layers = (
{
anchors = (
{
name = kasra;
pos = (301,-94);
}
);
backgroundImage = {
alpha = 100;
imagePath = "1/image-0056.jpg";
locked = 1;
pos = (-9126,-7020);
scale = (20,20);
};
layerId = m01;
shapes = (
{
closed = 1;
nodes = (
(420,17,o),
(475,37,o),
(478,73,cs),
(488,205,o),
(445,748,o),
(414,887,c),
(459,827,l),
(411,716,o),
(347,608,o),
(264,528,c),
(293,666,l),
(341,417,l),
(382,523,l),
(213,502,o),
(0,400,o),
(0,193,cs),
(0,36,o),
(208,-31,o),
(385,9,cs)
);
},
{
closed = 1;
nodes = (
(282,260,o),
(276,266,o),
(276,273,cs),
(276,280,o),
(282,286,o),
(289,286,cs),
(296,286,o),
(302,280,o),
(302,273,cs),
(302,266,o),
(296,260,o),
(289,260,cs)
);
}
);
width = 479;
}
);
metricLeft = "=0";
metricRight = "=0";
unicode = 1607;
},
{
glyphname = "heh-ar.fina";
layers = (
{
anchors = (
{
name = kasra;
pos = (129,-66);
}
);
backgroundImage = {
alpha = 100;
imagePath = "1/image-0056.jpg";
pos = (-3021,-7024);
scale = (20,20);
};
layerId = m01;
shapes = (
{
closed = 1;
nodes = (
(520,212,l),
(579,150,l),
(531,150,o),
(485,152,o),
(485,227,cs),
(488,842,l),
(497,818,l),
(443,720,o),
(381,632,o),
(308,580,c),
(338,706,l),
(337,439,l),
(386,540,l),
(227,495,o),
(0,419,o),
(0,183,cs),
(0,61,o),
(116,-1,o),
(247,0,cs),
(353,1,o),
(460,1,o),
(566,0,c),
(520,-81,l)
);
},
{
closed = 1;
nodes = (
(249,266,o),
(243,272,o),
(243,279,cs),
(243,286,o),
(249,292,o),
(256,292,cs),
(263,292,o),
(269,286,o),
(269,279,cs),
(269,272,o),
(263,266,o),
(256,266,cs)
);
}
);
width = 520;
}
);
metricLeft = "=0";
metricRight = "=0";
},
{
glyphname = "heh-ar.medi";
layers = (
{
layerId = m01;
shapes = (
{
closed = 1;
nodes = (
(-85,0,l),
(530,0,l),
(500,-49,l),
(489,194,l),
(509,132,l),
(-74,132,l),
(0,184,l),
(0,-63,l)
);
},
{
closed = 1;
nodes = (
(274,218,o),
(268,224,o),
(268,231,cs),
(268,238,o),
(274,244,o),
(281,244,cs),
(288,244,o),
(294,238,o),
(294,231,cs),
(294,224,o),
(288,218,o),
(281,218,cs)
);
},
{
closed = 1;
nodes = (
(244,380,o),
(238,386,o),
(238,393,cs),
(238,400,o),
(244,406,o),
(251,406,cs),
(258,406,o),
(264,400,o),
(264,393,cs),
(264,386,o),
(258,380,o),
(251,380,cs)
);
},
{
closed = 1;
nodes = (
(247,515,l),
(288,569,l),
(124,472,o),
(-8,344,o),
(12,196,cs),
(29,72,o),
(168,-20,o),
(313,-20,cs),
(358,-20,o),
(426,-20,o),
(464,6,cs),
(480,18,o),
(495,34,o),
(491,53,cs),
(466,158,o),
(415,336,o),
(341,837,c),
(372,818,l),
(311,659,o),
(282,629,o),
(220,549,c),
(229,615,l)
);
}
);
width = 478;
}
);
},
{
glyphname = "waw-ar";
layers = (
{
anchors = (
{
name = fatha;
pos = (390,729);
},
{
name = top.hamza;
pos = (99,427);
}
);
layerId = m01;
shapes = (
{
closed = 1;
nodes = (
(738,22,o),
(740,42,o),
(748,68,cs),
(788,194,o),
(678,610,o),
(456,610,cs),
(284,610,o),
(180,406,o),
(212,266,cs),
(244,130,o),
(444,132,o),
(584,146,c),
(588,138,o),
(588,136,o),
(588,128,c),
(438,108,o),
(282,110,o),
(190,192,c),
(142,118,o),
(84,86,o),
(20,52,c),
(154,-42,o),
(622,4,o),
(670,12,cs)
);
},
{
closed = 1;
nodes = (
(460,356,o),
(454,362,o),
(454,369,cs),
(454,376,o),
(460,382,o),
(467,382,cs),
(474,382,o),
(480,376,o),
(480,369,cs),
(480,362,o),
(474,356,o),
(467,356,cs)
);
}
);
width = 776;
}
);
unicode = 1608;
},
{
glyphname = "waw-ar.1";
layers = (
{
anchors = (
{
name = fatha;
pos = (390,669);
},
{
name = top.hamza;
pos = (129,407);
}
);
layerId = m01;
shapes = (
{
closed = 1;
nodes = (
(514,-64,o),
(636,-62,o),
(718,-22,cs),
(750,-6,o),
(788,20,o),
(784,126,cs),
(776,314,o),
(618,570,o),
(472,570,cs),
(300,570,o),
(194,366,o),
(216,226,cs),
(240,68,o),
(468,72,o),
(608,88,c),
(612,80,o),
(612,78,o),
(612,70,c),
(462,48,o),
(296,56,o),
(204,138,c),
(146,66,o),
(76,38,o),
(20,24,c),
(92,-32,o),
(276,-58,o),
(426,-62,cs)
);
},
{
closed = 1;
nodes = (
(468,312,o),
(462,318,o),
(462,325,cs),
(462,332,o),
(468,338,o),
(475,338,cs),
(482,338,o),
(488,332,o),
(488,325,cs),
(488,318,o),
(482,312,o),
(475,312,cs)
);
}
);
width = 804;
}
);
},
{
glyphname = "waw-ar.fina";
layers = (
{
anchors = (
{
name = top.hamza;
pos = (123,313);
}
);
layerId = m01;
shapes = (
{
closed = 1;
nodes = (
(504,-150,o),
(616,-140,o),
(686,-106,cs),
(730,-84,o),
(756,-68,o),
(762,38,cs),
(774,226,o),
(608,482,o),
(462,482,cs),
(306,482,o),
(190,278,o),
(222,138,cs),
(254,2,o),
(458,-6,o),
(598,8,c),
(602,0,o),
(602,-2,o),
(602,-10,c),
(452,-30,o),
(298,-18,o),
(206,64,c),
(148,-10,o),
(84,-30,o),
(20,-58,c),
(92,-110,o),
(266,-144,o),
(416,-148,cs)
);
},
{
closed = 1;
nodes = (
(452,230,o),
(446,236,o),
(446,243,cs),
(446,250,o),
(452,256,o),
(459,256,cs),
(466,256,o),
(472,250,o),
(472,243,cs),
(472,236,o),
(466,230,o),
(459,230,cs)
);
}
);
width = 756;
}
);
},
{
glyphname = "waw-ar.fina.1";
layers = (
{
anchors = (
{
name = top.hamza;
pos = (111,306);
}
);
layerId = m01;
shapes = (
{
closed = 1;
nodes = (
(738,-116,o),
(740,-96,o),
(748,-70,cs),
(788,56,o),
(678,472,o),
(456,472,cs),
(284,472,o),
(180,268,o),
(212,128,cs),
(244,-8,o),
(444,-6,o),
(584,8,c),
(588,0,o),
(588,-2,o),
(588,-10,c),
(438,-30,o),
(282,-28,o),
(190,54,c),
(142,-20,o),
(84,-52,o),
(20,-86,c),
(154,-180,o),
(622,-134,o),
(670,-126,cs)
);
},
{
closed = 1;
nodes = (
(460,218,o),
(454,224,o),
(454,231,cs),
(454,238,o),
(460,244,o),
(467,244,cs),
(474,244,o),
(480,238,o),
(480,231,cs),
(480,224,o),
(474,218,o),
(467,218,cs)
);
}
);
width = 740;
}
);
},
{
glyphname = "waw-ar.fina.alt";
layers = (
{
anchors = (
{
name = fatha;
pos = (424,600);
}
);
backgroundImage = {
alpha = 100;
imagePath = "1/image-0056.jpg";
pos = (-9512,-5199);
scale = (20,20);
};
layerId = m01;
shapes = (
{
closed = 1;
nodes = (
(718,-146,o),
(784,-62,o),
(742,30,cs),
(702,118,o),
(672,212,o),
(618,300,cs),
(578,364,o),
(534,436,o),
(436,436,cs),
(286,436,o),
(174,250,o),
(206,110,cs),
(238,-26,o),
(434,-50,o),
(574,-36,c),
(578,-44,o),
(578,-46,o),
(578,-54,c),
(428,-74,o),
(256,-44,o),
(164,38,c),
(136,-32,o),
(74,-72,o),
(10,-86,c),
(204,-226,o),
(580,-178,o),
(660,-160,cs)
);
},
{
closed = 1;
nodes = (
(450,178,o),
(444,184,o),
(444,191,cs),
(444,198,o),
(450,204,o),
(457,204,cs),
(464,204,o),
(470,198,o),
(470,191,cs),
(470,184,o),
(464,178,o),
(457,178,cs)
);
},
{
closed = 1;
nodes = (
(623,0,l),
(837,0,l),
(814,-29,l),
(806,167,l),
(833,127,l),
(725,104,o),
(687,165,o),
(663,215,c),
(669,-43,l)
);
}
);
width = 702;
}
);
},
{
glyphname = "alefMaksura-ar";
layers = (
{
anchors = (
{
name = bottom;
pos = (629,-402);
}
);
backgroundImage = {
alpha = 80;
imagePath = "images/alefMaksura-ar.jpg";
locked = 1;
pos = (-1089,-1067);
scale = (20,20);
};
layerId = m01;
shapes = (
{
closed = 1;
nodes = (
(463,147,o),
(421,105,o),
(387,88,cs),
(331,60,o),
(237,91,o),
(195,134,cs),
(186,143,o),
(177,131,o),
(183,124,cs),
(247,48,o),
(383,49,o),
(465,60,cs),
(491,63,o),
(493,38,o),
(494,14,cs),
(500,-243,o),
(491,-545,o),
(486,-812,cs),
(485,-845,o),
(465,-857,o),
(435,-860,cs),
(370,-868,o),
(307,-871,o),
(247,-871,cs),
(156,-871,o),
(72,-863,o),
(-5,-848,c),
(40,-810,o),
(95,-743,o),
(138,-689,c),
(215,-707,o),
(299,-709,o),
(372,-703,c),
(382,-525,o),
(382,-370,o),
(382,-189,cs),
(382,-134,o),
(370,-108,o),
(347,-110,cs),
(220,-122,o),
(20,-117,o),
(20,70,cs),
(20,182,o),
(98,320,o),
(233,320,cs),
(336,320,o),
(361,226,o),
(478,249,c)
);
}
);
width = 496;
}
);
metricLeft = "=20@70";
unicode = 1609;
},
{
glyphname = "alefMaksura-ar.1";
layers = (
{
anchors = (
{
name = bottom;
pos = (388,-654);
}
);
backgroundImage = {
alpha = 80;
imagePath = "images/alefMaksura-ar.1.jpg";
locked = 1;
pos = (-614,-929);
scale = (20,20);
};
layerId = m01;
shapes = (
{
closed = 1;
nodes = (
(459,208,o),
(413,142,o),
(361,126,cs),
(302,109,o),
(252,121,o),
(196,163,cs),
(185,171,o),
(181,157,o),
(184,153,cs),
(219,105,o),
(348,74,o),
(416,82,cs),
(442,85,o),
(444,60,o),
(445,36,cs),
(451,-221,o),
(424,-513,o),
(419,-630,cs),
(418,-663,o),
(400,-682,o),
(370,-684,cs),
(305,-689,o),
(256,-689,o),
(196,-689,cs),
(105,-689,o),
(-3,-666,o),
(-80,-651,c),
(-15,-623,o),
(20,-570,o),
(87,-502,c),
(158,-532,o),
(277,-533,o),
(326,-524,c),
(327,-457,o),
(335,-253,o),
(333,-152,cs),
(332,-109,o),
(327,-93,o),
(304,-90,cs),
(180,-76,o),
(20,-60,o),
(20,127,cs),
(20,199,o),
(88,344,o),
(223,344,cs),
(313,344,o),
(343,274,o),
(419,274,cs),
(442,274,o),
(457,276,o),
(472,281,c)
);
}
);
width = 490;
}
);
metricLeft = "=20@127";
},
{
glyphname = "kashida-ar";
layers = (
{
layerId = m01;
shapes = (
{
closed = 1;
nodes = (
(-60,0,l),
(286,0,l),
(220,-50,l),
(220,180,l),
(286,150,l),
(-60,150,l),
(0,178,l),
(0,-56,l)
);
}
);
width = 200;
}
);
metricLeft = "=0";
metricRight = "=-20";
unicode = 1600;
},
{
glyphname = "behDotless_reh-ar";
layers = (
{
anchors = (
{
name = bottom_1;
pos = (666,34);
},
{
name = caret_1;
pos = (524,0);
},
{
name = fatha_1;
pos = (626,702);
},
{
name = fatha_2;
pos = (406,376);
},
{
name = top_1;
pos = (594,474);
},
{
name = top_2;
pos = (304,200);
}
);
layerId = m01;
shapes = (
{
closed = 1;
nodes = (
(638,520,o),
(580,436,o),
(510,368,c),
(494,564,l),
(544,410,o),
(564,282,o),
(556,84,c),
(616,132,l),
(498,132,l),
(532,242,l),
(532,-30,l),
(494,0,l),
(662,0,l),
(684,0,o),
(702,14,o),
(702,36,cs),
(706,358,o),
(694,442,o),
(632,750,c),
(694,618,l)
);
},
{
closed = 1;
nodes = (
(414,288,o),
(404,284,o),
(394,276,cs),
(362,250,o),
(252,128,o),
(202,56,cs),
(194,46,o),
(182,28,o),
(200,22,cs),
(256,2,o),
(344,-2,o),
(410,0,c),
(414,-4,o),
(416,-14,o),
(416,-18,c),
(344,-30,o),
(238,-24,o),
(160,4,c),
(124,-38,o),
(54,-102,o),
(0,-126,c),
(54,-170,o),
(396,-192,o),
(540,-154,cs),
(576,-144,o),
(616,-120,o),
(622,-84,cs),
(644,52,o),
(528,214,o),
(434,276,cs)
);
}
);
width = 703;
}
);
metricLeft = "=0";
metricRight = "=0";
},
{
glyphname = "behDotless_seen-ar.init";
layers = (
{
anchors = (
{
name = bottom_1;
pos = (591,-5);
},
{
name = caret_1;
pos = (476,0);
},
{
name = damma_2;
pos = (-1,245);
},
{
name = fatha_1;
pos = (621,800);
},
{
name = kasra_1;
pos = (739,-166);
},
{
name = top_1;
pos = (541,611);
}
);
backgroundImage = {
alpha = 100;
imagePath = "1/image-0056.jpg";
locked = 1;
pos = (-11673,-7050);
scale = (20,20);
};
guides = (
{
pos = (801,132);
}
);
layerId = m01;
shapes = (
{
closed = 1;
nodes = (
(433,0,l),
(601,0,l),
(623,0,o),
(639,14,o),
(639,36,cs),
(639,358,o),
(643,434,o),
(597,750,c),
(633,763,l),
(577,665,o),
(519,556,o),
(449,488,c),
(468,564,l),
(510,411,o),
(501,282,o),
(495,84,c),
(555,132,l),
(437,132,l),
(471,-30,l)
);
},
{
closed = 1;
nodes = (
(524,151,l),
(468,246,o),
(463,454,o),
(458,571,c),
(493,572,l),
(443,467,o),
(377,363,o),
(316,309,c),
(333,417,l),
(333,333,o),
(347,249,o),
(378,165,c),
(326,258,o),
(297,413,o),
(270,556,c),
(303,564,l),
(275,435,o),
(217,303,o),
(163,227,c),
(175,339,l),
(185,286,o),
(200,233,o),
(231,180,c),
(168,252,o),
(130,355,o),
(97,452,c),
(150,514,l),
(111,417,o),
(62,250,o),
(-4,180,c),
(-22,310,l),
(2,242,o),
(42,163,o),
(70,130,c),
(92,70,l),
(116,132,l),
(-35,132,l),
(-20,161,l),
(-20,-26,l),
(-35,0,l),
(521,0,l),
(519,-73,l)
);
}
);
width = 639;
}
);
metricLeft = "=20@211";
metricRight = "=0";
},
{
glyphname = "behDotless_waw-ar";
layers = (
{
anchors = (
{
name = bottom_1;
pos = (830,98);
},
{
name = caret_1;
pos = (644,0);
},
{
name = fatha_1;
pos = (802,760);
},
{
name = fatha_2;
pos = (414,700);
},
{
name = top_1;
pos = (726,550);
}
);
layerId = m01;
shapes = (
{
closed = 1;
nodes = (
(662,60,l),
(830,60,l),
(852,60,o),
(868,74,o),
(868,96,cs),
(868,418,o),
(822,494,o),
(756,730,c),
(822,680,l),
(766,582,o),
(708,498,o),
(638,430,c),
(630,504,l),
(700,364,o),
(716,342,o),
(716,144,c),
(784,192,l),
(666,192,l),
(700,222,l),
(700,30,l)
);
},
{
closed = 1;
nodes = (
(782,136,l),
(778,222,l),
(704,222,o),
(674,272,o),
(654,314,c),
(658,132,l)
);
},
{
pos = (-10,100);
ref = "waw-ar.fina.alt";
}
);
width = 868;
}
);
metricLeft = "=0";
metricRight = "=0";
},
{
glyphname = "lam_alefMaksura-ar.fina";
layers = (
{
anchors = (
{
name = bottom_2;
pos = (594,-252);
},
{
name = caret_1;
},
{
name = fatha_1;
pos = (-132,1102);
},
{
name = fatha_2;
pos = (-108,14);
}
);
layerId = m01;
shapes = (
{
closed = 1;
nodes = (
(476,-308,o),
(532,-276,o),
(528,-226,cs),
(522,-162,o),
(498,-106,o),
(468,-50,cs),
(460,-36,o),
(442,-26,o),
(426,-26,cs),
(342,-26,o),
(268,-26,o),
(162,-26,cs),
(122,-26,o),
(126,30,o),
(126,70,c),
(92,0,l),
(272,0,l),
(272,172,l),
(316,132,l),
(234,148,o),
(126,138,o),
(126,292,cs),
(126,522,o),
(164,1068,o),
(106,1242,c),
(74,1156,o),
(32,1078,o),
(-18,1038,c),
(14,940,o),
(20,698,o),
(16,576,cs),
(10,402,o),
(-8,74,o),
(4,-118,cs),
(6,-144,o),
(10,-154,o),
(36,-158,cs),
(146,-172,o),
(248,-168,o),
(330,-164,c),
(336,-178,o),
(340,-180,o),
(340,-194,c),
(278,-194,o),
(82,-212,o),
(-8,-174,c),
(-36,-216,o),
(-96,-258,o),
(-186,-302,c),
(-62,-340,o),
(342,-330,o),
(430,-316,cs)
);
}
);
width = 170;
}
);
metricLeft = "=0@0";
},
{
glyphname = "ain_waw-ar";
layers = (
{
anchors = (
{
name = caret_1;
pos = (743,0);
},
{
name = fatha_1;
pos = (874,618);
},
{
name = fatha_2;
pos = (448,640);
}
);
backgroundImage = {
imagePath = "images/ain_waw-ar.jpg";
locked = 1;
pos = (-142,-456);
scale = (20,20);
};
layerId = m01;
shapes = (
{
closed = 1;
nodes = (
(782,-94,o),
(833,0,o),
(797,79,cs),
(757,167,o),
(738,212,o),
(684,300,cs),
(644,364,o),
(575,476,o),
(457,476,cs),
(307,476,o),
(178,274,o),
(210,134,cs),
(242,-2,o),
(428,-30,o),
(617,-12,c),
(621,-20,o),
(621,-25,o),
(621,-33,c),
(471,-53,o),
(262,-29,o),
(196,57,c),
(148,0,o),
(64,-46,o),
(0,-60,c),
(207,-189,o),
(539,-165,o),
(638,-136,cs)
);
},
{
closed = 1;
nodes = (
(435,239,o),
(429,245,o),
(429,252,cs),
(429,259,o),
(435,265,o),
(442,265,cs),
(449,265,o),
(455,259,o),
(455,252,cs),
(455,245,o),
(449,239,o),
(442,239,cs)
);
},
{
closed = 1;
nodes = (
(1079,-4,o),
(1591,-4,o),
(1918,0,c),
(1981,49,o),
(2055,82,o),
(2134,106,c),
(1918,98,o),
(1378,109,o),
(1184,170,cs),
(998,228,o),
(843,371,o),
(902,442,cs),
(1010,571,l),
(996,584,l),
(782,346,ls),
(717,274,o),
(764,127,o),
(862,107,c),
(914,142,l),
(734,142,l),
(734,-1,l)
);
}
);
width = 2134;
}
);
metricLeft = "=0";
metricRight = "=0";
},
{
glyphname = "fehDotless_alef-ar";
layers = (
{
anchors = (
{
name = caret_1;
pos = (188,0);
},
{
name = top.hamza_2;
pos = (278,1124);
},
{
name = top_1;
pos = (258,596);
}
);
layerId = m01;
shapes = (
{
closed = 1;
nodes = (
(336,-16,o),
(526,-4,o),
(610,8,cs),
(688,18,o),
(712,52,o),
(712,106,cs),
(710,268,o),
(614,640,o),
(396,640,cs),
(244,640,o),
(130,464,o),
(152,314,cs),
(180,120,o),
(444,154,o),
(528,148,c),
(532,144,o),
(534,140,o),
(534,132,c),
(320,132,o),
(120,132,o),
(120,362,cs),
(120,698,o),
(198,1030,o),
(158,1364,c),
(194,1346,l),
(136,1238,o),
(52,1128,o),
(-40,1040,c),
(10,1220,l),
(18,1128,o),
(36,1036,o),
(36,944,cs),
(36,668,o),
(4,454,o),
(0,178,cs),
(-2,24,o),
(72,-16,o),
(174,-16,cs)
);
},
{
closed = 1;
nodes = (
(390,398,o),
(384,404,o),
(384,411,cs),
(384,418,o),
(390,424,o),
(397,424,cs),
(404,424,o),
(410,418,o),
(410,411,cs),
(410,404,o),
(404,398,o),
(397,398,cs)
);
}
);
width = 712;
}
);
metricLeft = "=0";
metricRight = "=0";
},
{
glyphname = "fehDotless_alefMaksura-ar";
layers = (
{
anchors = (
{
name = bottom_1;
pos = (938,290);
},
{
name = bottom_2;
pos = (524,-110);
},
{
name = caret_1;
pos = (380,0);
},
{
name = top_1;
pos = (432,692);
},
{
name = top_2;
pos = (112,382);
}
);
layerId = m01;
shapes = (
{
closed = 1;
nodes = (
(400,-4,o),
(1492,-14,o),
(1848,34,cs),
(1856,36,o),
(1862,42,o),
(1870,50,cs),
(1902,82,o),
(1944,112,o),
(2010,136,c),
(1698,110,o),
(810,98,o),
(392,122,cs),
(302,128,o),
(230,156,o),
(200,184,cs),
(194,190,o),
(194,204,o),
(204,200,cs),
(212,196,o),
(218,188,o),
(226,184,cs),
(266,160,o),
(322,142,o),
(380,140,cs),
(522,134,o),
(702,146,o),
(786,156,cs),
(826,160,o),
(888,180,o),
(896,226,cs),
(942,492,o),
(794,786,o),
(606,786,cs),
(412,786,o),
(266,406,o),
(446,318,cs),
(526,280,o),
(662,294,o),
(738,306,c),
(748,292,l),
(692,278,o),
(518,268,o),
(438,294,cs),
(360,318,o),
(348,424,o),
(242,424,cs),
(112,424,o),
(0,270,o),
(0,134,cs),
(0,22,o),
(122,20,o),
(186,14,cs)
);
},
{
closed = 1;
nodes = (
(612,534,o),
(606,540,o),
(606,547,cs),
(606,554,o),
(612,560,o),
(619,560,cs),
(626,560,o),
(632,554,o),
(632,547,cs),
(632,540,o),
(626,534,o),
(619,534,cs)
);
}
);
width = 2010;
}
);
metricLeft = "=0";
metricRight = "=0";
},
{
glyphname = "lam_lam_heh-ar";
layers = (
{
anchors = (
{
name = caret_1;
pos = (475,0);
},
{
name = caret_2;
pos = (625,0);
},
{
name = fatha_2;
pos = (368,1013);
},
{
name = kasra_1;
pos = (629,112);
},
{
name = kasra_3;
pos = (371,-76);
}
);
backgroundImage = {
alpha = 100;
imagePath = "1/image-0056.jpg";
locked = 1;
pos = (-8570,-3239);
scale = (20,20);
};
layerId = m01;
shapes = (
{
closed = 1;
nodes = (
(311,439,l),
(398,540,l),
(239,508,o),
(0,419,o),
(0,217,cs),
(0,61,o),
(128,-1,o),
(259,0,cs),
(365,1,o),
(472,1,o),
(578,0,c),
(552,-81,l),
(552,212,l),
(571,171,l),
(523,171,o),
(457,173,o),
(457,248,cs),
(458,443,o),
(455,638,o),
(450,833,c),
(509,833,l),
(455,735,o),
(355,584,o),
(282,532,c),
(312,621,l)
);
},
{
closed = 1;
nodes = (
(291,277,o),
(285,283,o),
(285,290,cs),
(285,297,o),
(291,303,o),
(298,303,cs),
(305,303,o),
(311,297,o),
(311,290,cs),
(311,283,o),
(305,277,o),
(298,277,cs)
);
},
{
closed = 1;
nodes = (
(564,0,l),
(724,0,ls),
(762,0,o),
(789,24,o),
(789,50,cs),
(789,192,o),
(768,472,o),
(766,652,cs),
(764,884,o),
(765,1118,o),
(733,1350,c),
(771,1372,l),
(721,1281,o),
(673,1173,o),
(601,1113,c),
(598,1149,l),
(619,1089,o),
(642,1029,o),
(642,900,cs),
(642,710,o),
(650,382,o),
(644,132,c),
(566,134,l),
(592,180,l),
(592,-34,l)
);
},
{
closed = 1;
nodes = (
(624,179,o),
(605,203,o),
(605,300,cs),
(605,572,o),
(616,1010,o),
(559,1312,c),
(609,1210,l),
(568,1118,o),
(504,987,o),
(427,936,c),
(406,1119,l),
(443,1035,o),
(489,890,o),
(490,746,cs),
(493,83,l),
(558,132,l),
(389,132,l),
(451,150,l),
(451,-34,l),
(404,0,l),
(684,0,l),
(669,-45,l),
(669,173,l)
);
}
);
width = 789;
}
);
metricLeft = "=0";
metricRight = "=0";
},
{
glyphname = "meem_noonghunna-ar";
layers = (
{
anchors = (
{
name = caret_1;
pos = (396,0);
},
{
name = fatha_2;
pos = (123,452);
},
{
name = kasra_1;
pos = (651,-127);
},
{
name = top_2;
pos = (48,266);
}
);
backgroundImage = {
alpha = 100;
imagePath = "1/image-0056.jpg";
locked = 1;
pos = (-7741,-7014);
scale = (20,20);
};
layerId = m01;
shapes = (
{
closed = 1;
nodes = (
(52,-900,o),
(249,-907,o),
(399,-886,cs),
(427,-882,o),
(440,-862,o),
(439,-838,cs),
(425,-592,o),
(418,-245,o),
(428,-50,cs),
(441,202,o),
(377,307,o),
(85,383,c),
(136,408,l),
(102,324,o),
(50,234,o),
(-36,150,c),
(-9,189,l),
(101,180,o),
(246,127,o),
(281,6,cs),
(323,-140,o),
(312,-478,o),
(310,-728,c),
(212,-737,o),
(99,-716,o),
(13,-682,c),
(106,-663,l),
(63,-743,o),
(-20,-829,o),
(-97,-883,c),
(-102,-859,l)
);
},
{
closed = 1;
nodes = (
(905,21,o),
(950,66,o),
(936,183,cs),
(916,345,o),
(821,541,o),
(679,541,cs),
(529,541,o),
(405,379,o),
(399,195,cs),
(395,87,o),
(501,21,o),
(703,21,cs)
);
},
{
closed = 1;
nodes = (
(695,239,o),
(689,245,o),
(689,252,cs),
(689,259,o),
(695,265,o),
(702,265,cs),
(709,265,o),
(715,259,o),
(715,252,cs),
(715,245,o),
(709,239,o),
(702,239,cs)
);
}
);
width = 938;
}
);
metricLeft = "=0@188";
metricRight = "=0";
},
{
glyphname = "meem_noonghunna-ar.1";
layers = (
{
anchors = (
{
name = caret_1;
pos = (354,-20);
},
{
name = fatha_2;
pos = (141,432);
},
{
name = kasra_1;
pos = (665,-92);
},
{
name = top_2;
pos = (51,226);
}
);
backgroundImage = {
alpha = 100;
imagePath = "1/image-0056.jpg";
pos = (-14843,-3234);
scale = (20,20);
};
layerId = m01;
shapes = (
{
closed = 1;
nodes = (
(18,-891,o),
(215,-912,o),
(363,-891,cs),
(391,-887,o),
(404,-867,o),
(403,-843,cs),
(393,-597,o),
(386,-275,o),
(392,-80,cs),
(400,172,o),
(375,259,o),
(43,363,c),
(166,378,l),
(132,294,o),
(56,204,o),
(-30,120,c),
(-51,154,l),
(59,145,o),
(213,97,o),
(248,-24,cs),
(290,-170,o),
(270,-473,o),
(268,-723,c),
(170,-732,o),
(57,-711,o),
(-29,-677,c),
(75,-658,l),
(34,-736,o),
(-55,-818,o),
(-131,-872,c),
(-136,-848,l)
);
},
{
closed = 1;
nodes = (
(863,2,o),
(888,36,o),
(874,153,cs),
(854,315,o),
(785,501,o),
(643,501,cs),
(513,501,o),
(385,348,o),
(357,165,cs),
(348,107,o),
(459,-20,o),
(661,-9,cs)
);
},
{
closed = 1;
nodes = (
(653,209,o),
(647,215,o),
(647,222,cs),
(647,229,o),
(653,235,o),
(660,235,cs),
(667,235,o),
(673,229,o),
(673,222,cs),
(673,215,o),
(667,209,o),
(660,209,cs)
);
}
);
width = 877;
}
);
metricLeft = "=0@150";
metricRight = "=0";
},
{
glyphname = .notdef;
layers = (
{
layerId = m01;
shapes = (
{
closed = 1;
nodes = (
(1000,-800,l),
(1000,1200,l),
(200,1200,l),
(200,-800,l)
);
},
{
closed = 1;
nodes = (
(948,1084,l),
(852,1116,l),
(252,-684,l),
(348,-716,l)
);
},
{
closed = 1;
nodes = (
(348,1116,l),
(252,1084,l),
(852,-716,l),
(948,-684,l)
);
},
{
closed = 1;
nodes = (
(300,1100,l),
(900,1100,l),
(900,-700,l),
(300,-700,l)
);
}
);
width = 1200;
}
);
},
{
glyphname = "endofayah-ar";
layers = (
{
guides = (
{
angle = 90;
pos = (370,208);
},
{
angle = 180;
pos = (350,104);
},
{
angle = 202.5;
pos = (370,208);
},
{
angle = 247.5;
pos = (370,208);
},
{
angle = 225;
pos = (370,208);
}
);
layerId = m01;
shapes = (
{
closed = 1;
nodes = (
(498,-22,o),
(600,82,o),
(600,208,cs),
(600,334,o),
(498,438,o),
(370,438,cs),
(244,438,o),
(140,334,o),
(140,208,cs),
(140,82,o),
(244,-22,o),
(370,-22,cs)
);
},
{
closed = 1;
nodes = (
(294,0,o),
(322,74,o),
(352,140,c),
(362,128,l),
(346,130,o),
(332,136,o),
(320,146,c),
(334,148,l),
(310,80,o),
(276,8,o),
(222,60,cs),
(170,114,o),
(242,148,o),
(310,172,c),
(306,160,l),
(296,172,o),
(290,186,o),
(290,202,c),
(302,190,l),
(236,160,o),
(162,132,o),
(162,208,cs),
(162,284,o),
(236,256,o),
(302,226,c),
(290,214,l),
(292,232,o),
(298,248,o),
(308,260,c),
(310,244,l),
(242,268,o),
(170,302,o),
(222,356,cs),
(276,408,o),
(310,336,o),
(334,268,c),
(318,268,l),
(330,278,o),
(344,286,o),
(362,288,c),
(352,276,l),
(322,342,o),
(294,416,o),
(370,416,cs),
(446,416,o),
(418,342,o),
(388,276,c),
(380,288,l),
(394,286,o),
(406,280,o),
(418,272,c),
(406,268,l),
(430,336,o),
(464,408,o),
(518,356,cs),
(570,302,o),
(498,268,o),
(430,244,c),
(430,262,l),
(440,250,o),
(448,234,o),
(450,218,c),
(438,226,l),
(504,256,o),
(578,284,o),
(578,208,cs),
(578,132,o),
(504,160,o),
(438,190,c),
(450,200,l),
(448,184,o),
(442,168,o),
(432,156,c),
(430,172,l),
(498,148,o),
(570,114,o),
(518,60,cs),
(464,8,o),
(430,80,o),
(406,148,c),
(424,148,l),
(412,138,o),
(396,130,o),
(380,128,c),
(388,140,l),
(418,74,o),
(446,0,o),
(370,0,cs)
);
},
{
closed = 1;
nodes = (
(400,156,o),
(422,180,o),
(422,208,cs),
(422,236,o),
(400,260,o),
(370,260,cs),
(342,260,o),
(318,236,o),
(318,208,cs),
(318,180,o),
(342,156,o),
(370,156,cs)
);
}
);
width = 740;
},
{
associatedMasterId = m01;
attr = {
colorPalette = 1;
};
layerId = "38461C08-F54E-4BE4-9620-3C6CF5840E38";
shapes = (
{
closed = 1;
nodes = (
(498,-22,o),
(600,82,o),
(600,208,cs),
(600,334,o),
(498,438,o),
(370,438,cs),
(244,438,o),
(140,334,o),
(140,208,cs),
(140,82,o),
(244,-22,o),
(370,-22,cs)
);
}
);
width = 740;
},
{
associatedMasterId = m01;
attr = {
colorPalette = 2;
};
layerId = "A1159DA2-F385-4606-A8B3-A130608730DA";
shapes = (
{
closed = 1;
nodes = (
(498,-22,o),
(600,82,o),
(600,208,cs),
(600,334,o),
(498,438,o),
(370,438,cs),
(244,438,o),
(140,334,o),
(140,208,cs),
(140,82,o),
(244,-22,o),
(370,-22,cs)
);
},
{
closed = 1;
nodes = (
(294,0,o),
(322,74,o),
(352,140,c),
(362,128,l),
(346,130,o),
(332,136,o),
(320,146,c),
(334,148,l),
(310,80,o),
(276,8,o),
(222,60,cs),
(170,114,o),
(242,148,o),
(310,172,c),
(306,160,l),
(296,172,o),
(290,186,o),
(290,202,c),
(302,190,l),
(236,160,o),
(162,132,o),
(162,208,cs),
(162,284,o),
(236,256,o),
(302,226,c),
(290,214,l),
(292,232,o),
(298,248,o),
(308,260,c),
(310,244,l),
(242,268,o),
(170,302,o),
(222,356,cs),
(276,408,o),
(310,336,o),
(334,268,c),
(318,268,l),
(330,278,o),
(344,286,o),
(362,288,c),
(352,276,l),
(322,342,o),
(294,416,o),
(370,416,cs),
(446,416,o),
(418,342,o),
(388,276,c),
(380,288,l),
(394,286,o),
(406,280,o),
(418,272,c),
(406,268,l),
(430,336,o),
(464,408,o),
(518,356,cs),
(570,302,o),
(498,268,o),
(430,244,c),
(430,262,l),
(440,250,o),
(448,234,o),
(450,218,c),
(438,226,l),
(504,256,o),
(578,284,o),
(578,208,cs),
(578,132,o),
(504,160,o),
(438,190,c),
(450,200,l),
(448,184,o),
(442,168,o),
(432,156,c),
(430,172,l),
(498,148,o),
(570,114,o),
(518,60,cs),
(464,8,o),
(430,80,o),
(406,148,c),
(424,148,l),
(412,138,o),
(396,130,o),
(380,128,c),
(388,140,l),
(418,74,o),
(446,0,o),
(370,0,cs)
);
},
{
closed = 1;
nodes = (
(400,156,o),
(422,180,o),
(422,208,cs),
(422,236,o),
(400,260,o),
(370,260,cs),
(342,260,o),
(318,236,o),
(318,208,cs),
(318,180,o),
(342,156,o),
(370,156,cs)
);
}
);
width = 740;
},
{
associatedMasterId = m01;
attr = {
colorPalette = 0;
};
guides = (
{
angle = 90;
pos = (370,208);
},
{
angle = 180;
pos = (370,208);
},
{
angle = 202.5;
pos = (370,208);
},
{
angle = 247.5;
pos = (370,208);
},
{
angle = 225;
pos = (370,208);
}
);
layerId = "F1582E70-E757-409A-AE56-0C2D8B4714EF";
shapes = (
{
closed = 1;
nodes = (
(306,380,o),
(322,396,o),
(322,418,cs),
(322,438,o),
(306,454,o),
(286,454,cs),
(264,454,o),
(248,438,o),
(248,418,cs),
(248,396,o),
(264,380,o),
(286,380,cs)
);
},
{
closed = 1;
nodes = (
(476,380,o),
(492,396,o),
(492,418,cs),
(492,438,o),
(476,454,o),
(456,454,cs),
(434,454,o),
(418,438,o),
(418,418,cs),
(418,396,o),
(434,380,o),
(456,380,cs)
);
},
{
closed = 1;
nodes = (
(306,-38,o),
(322,-22,o),
(322,0,cs),
(322,20,o),
(306,36,o),
(286,36,cs),
(264,36,o),
(248,20,o),
(248,0,cs),
(248,-22,o),
(264,-38,o),
(286,-38,cs)
);
},
{
closed = 1;
nodes = (
(476,-38,o),
(492,-22,o),
(492,0,cs),
(492,20,o),
(476,36,o),
(456,36,cs),
(434,36,o),
(418,20,o),
(418,0,cs),
(418,-22,o),
(434,-38,o),
(456,-38,cs)
);
},
{
closed = 1;
nodes = (
(182,256,o),
(198,272,o),
(198,294,cs),
(198,314,o),
(182,330,o),
(162,330,cs),
(140,330,o),
(124,314,o),
(124,294,cs),
(124,272,o),
(140,256,o),
(162,256,cs)
);
},
{
closed = 1;
nodes = (
(182,86,o),
(198,102,o),
(198,124,cs),
(198,144,o),
(182,160,o),
(162,160,cs),
(140,160,o),
(124,144,o),
(124,124,cs),
(124,102,o),
(140,86,o),
(162,86,cs)
);
},
{
closed = 1;
nodes = (
(600,256,o),
(616,272,o),
(616,294,cs),
(616,314,o),
(600,330,o),
(580,330,cs),
(558,330,o),
(542,314,o),
(542,294,cs),
(542,272,o),
(558,256,o),
(580,256,cs)
);
},
{
closed = 1;
nodes = (
(600,86,o),
(616,102,o),
(616,124,cs),
(616,144,o),
(600,160,o),
(580,160,cs),
(558,160,o),
(542,144,o),
(542,124,cs),
(542,102,o),
(558,86,o),
(580,86,cs)
);
}
);
width = 740;
}
);
unicode = 1757;
},
{
category = Mark;
glyphname = "dotabove-ar";
layers = (
{
anchors = (
{
name = _top;
pos = (90,50);
}
);
layerId = m01;
shapes = (
{
closed = 1;
nodes = (
(61,50,o),
(94,95,o),
(129,153,c),
(111,163,l),
(78,107,o),
(45,62,o),
(1,12,c),
(17,-2,l)
);
}
);
width = 128;
},
{
anchors = (
{
name = _top;
pos = (90,50);
}
);
associatedMasterId = m01;
layerId = "1951D83C-027C-46A2-BBE7-A485E6845D98";
name = "1 May 21, 00:30";
shapes = (
{
closed = 1;
nodes = (
(128,152,l),
(112,164,l),
(0,12,l),
(16,0,l)
);
}
);
width = 128;
}
);
subCategory = Nonspacing;
},
{
category = Mark;
glyphname = "dotabove-ar.reh";
layers = (
{
anchors = (
{
name = _top;
pos = (90,50);
}
);
layerId = m01;
shapes = (
{
closed = 1;
nodes = (
(62,42,o),
(104,91,o),
(142,142,c),
(126,154,l),
(88,103,o),
(48,56,o),
(2,13,c),
(16,-1,l)
);
}
);
width = 142;
},
{
anchors = (
{
name = _top;
pos = (90,50);
}
);
associatedMasterId = m01;
layerId = "54B3BE47-6985-45AE-A51D-CDE60F3B1871";
name = "1 May 21, 00:31";
shapes = (
{
closed = 1;
nodes = (
(142,142,l),
(126,154,l),
(0,12,l),
(16,0,l)
);
},
{
closed = 0;
nodes = (
(134,148,l),
(96,97,o),
(55,49,o),
(9,6,c)
);
}
);
width = 142;
}
);
subCategory = Nonspacing;
},
{
category = Mark;
glyphname = "threedotshorizontalabove-ar";
layers = (
{
anchors = (
{
name = _top;
pos = (397,-14);
}
);
layerId = m01;
shapes = (
{
closed = 1;
nodes = (
(553,78,o),
(587,132,o),
(615,192,c),
(597,200,l),
(569,142,o),
(537,90,o),
(501,41,c),
(517,29,l)
);
},
{
closed = 1;
nodes = (
(372,10,o),
(407,65,o),
(430,124,c),
(412,132,l),
(389,75,o),
(356,22,o),
(316,-30,c),
(332,-42,l)
);
},
{
closed = 1;
nodes = (
(56,-146,o),
(85,-93,o),
(113,-40,c),
(96,-30,l),
(68,-83,o),
(39,-135,o),
(0,-183,c),
(15,-197,l)
);
}
);
width = 615;
}
);
metricLeft = "=0";
metricRight = "=0";
subCategory = Nonspacing;
},
{
category = Mark;
glyphname = "threedotshorizontalabove-ar.alt";
layers = (
{
anchors = (
{
name = _top;
pos = (210,-14);
}
);
layerId = m01;
shapes = (
{
closed = 1;
nodes = (
(372,135,o),
(406,189,o),
(434,249,c),
(416,257,l),
(388,199,o),
(356,147,o),
(320,98,c),
(336,86,l)
);
},
{
closed = 1;
nodes = (
(218,82,o),
(253,137,o),
(276,196,c),
(258,204,l),
(235,147,o),
(202,94,o),
(162,42,c),
(178,30,l)
);
},
{
closed = 1;
nodes = (
(52,54,o),
(76,110,o),
(98,166,c),
(80,174,l),
(58,118,o),
(34,64,o),
(0,12,c),
(16,0,l)
);
}
);
width = 434;
}
);
subCategory = Nonspacing;
},
{
category = Mark;
glyphname = "fatha-ar";
layers = (
{
anchors = (
{
name = _fatha;
pos = (92,92);
}
);
layerId = m01;
shapes = (
{
closed = 1;
nodes = (
(142,0,o),
(184,42,o),
(184,92,cs),
(184,142,o),
(142,184,o),
(92,184,cs),
(42,184,o),
(0,142,o),
(0,92,cs),
(0,42,o),
(42,0,o),
(92,0,cs)
);
},
{
closed = 1;
nodes = (
(50,20,o),
(20,50,o),
(20,92,cs),
(20,134,o),
(50,164,o),
(92,164,cs),
(134,164,o),
(164,134,o),
(164,92,cs),
(164,50,o),
(134,20,o),
(92,20,cs)
);
}
);
width = 184;
},
{
anchors = (
{
name = _fatha;
pos = (92,92);
}
);
associatedMasterId = m01;
attr = {
colorPalette = 0;
};
layerId = "7AFB0887-D8D9-481C-81E1-5E6720F61C9F";
name = "Regular 25 Jun 22, 20:51";
shapes = (
{
closed = 1;
nodes = (
(142,0,o),
(184,42,o),
(184,92,cs),
(184,142,o),
(142,184,o),
(92,184,cs),
(42,184,o),
(0,142,o),
(0,92,cs),
(0,42,o),
(42,0,o),
(92,0,cs)
);
}
);
width = 184;
}
);
subCategory = Nonspacing;
unicode = 1614;
},
